<?xml version="1.0" encoding="UTF-8"?>
<!DOCTYPE svg PUBLIC "-//W3C//DTD SVG 1.1//EN" "http://www.w3.org/Graphics/SVG/1.1/DTD/svg11.dtd">
<!-- Creator: CorelDRAW 2021 (64-Bit) -->
<svg xmlns="http://www.w3.org/2000/svg" xml:space="preserve" width="2in" height="0.5in" version="1.1" style="shape-rendering:geometricPrecision; text-rendering:geometricPrecision; image-rendering:optimizeQuality; fill-rule:evenodd; clip-rule:evenodd"
viewBox="0 0 2000 500"
 xmlns:xlink="http://www.w3.org/1999/xlink"
 xmlns:xodm="http://www.corel.com/coreldraw/odm/2003">
 <defs>
  <style type="text/css">
   <![CDATA[
    .fil5 {fill:#E6E7E8;fill-rule:nonzero}
    .fil4 {fill:#2DB67C;fill-rule:nonzero}
    .fil1 {fill:#33C5F0;fill-rule:nonzero}
    .fil2 {fill:#DF1F5A;fill-rule:nonzero}
    .fil3 {fill:#EBB32F;fill-rule:nonzero}
    .fil0 {fill:white;fill-rule:nonzero}
   ]]>
  </style>
 </defs>
 <g id="Layer_x0020_1">
  <metadata id="CorelCorpID_0Corel-Layer"/>
  <g id="_2922823407632">
   <g>
    <path class="fil0" d="M291 109.05l42.03 39.18c2.31,2.16 3.47,4.99 3.47,7.81 0,2.83 -1.15,5.66 -3.47,7.81l-67.18 62.62c-4.63,4.32 -12.13,4.32 -16.77,0l-66.9 -62.37c0,0 -0.06,0 -0.06,-0.05l-0.5 -0.46c-0.06,0 -0.06,0 -0.06,-0.05 -4.35,-4.32 -4.25,-11.16 0.28,-15.37l75.62 -70.49c8.93,8.33 9.26,21.65 1.05,30.38l-43.02 40.11c-2.32,2.16 -3.48,4.99 -3.48,7.81 0,2.83 1.16,5.65 3.48,7.81l41.97 39.13 41.97 -39.13c2.31,-2.16 3.48,-4.99 3.48,-7.81 0,-2.83 -1.16,-5.66 -3.48,-7.81l-8.39 -7.81c-9.37,-8.64 -9.37,-22.68 -0.06,-31.31z"/>
    <path class="fil1" d="M291 109.05l42.03 39.18c2.31,2.16 3.47,4.99 3.47,7.81 0,2.83 -1.15,5.66 -3.47,7.81l-67.18 62.62c-4.63,4.32 -12.13,4.32 -16.77,0l-66.9 -62.37c0,0 -0.06,0 -0.06,-0.05l-0.5 -0.46c-0.06,0 -0.06,0 -0.06,-0.05 -4.35,-4.32 -4.25,-11.16 0.28,-15.37l75.62 -70.49c8.93,8.33 9.26,21.65 1.05,30.38l-43.02 40.11c-2.32,2.16 -3.48,4.99 -3.48,7.81 0,2.83 1.16,5.65 3.48,7.81l41.97 39.13 41.97 -39.13c2.31,-2.16 3.48,-4.99 3.48,-7.81 0,-2.83 -1.16,-5.66 -3.48,-7.81l-8.39 -7.81c-9.37,-8.64 -9.37,-22.68 -0.06,-31.31z"/>
    <path class="fil2" d="M106.17 218.72l42.03 -39.18c2.32,-2.16 5.35,-3.24 8.39,-3.24 3.03,0 6.07,1.08 8.38,3.24l67.18 62.63c4.63,4.32 4.63,11.31 0,15.63l-66.91 62.37c0,0 0,0.05 -0.06,0.05l-0.5 0.46c0,0.05 0,0.05 -0.06,0.05 -4.63,4.06 -11.97,3.96 -16.49,-0.26l-75.62 -70.49c8.93,-8.33 23.22,-8.64 32.59,-0.98l43.02 40.1c2.31,2.16 5.35,3.24 8.38,3.24 3.04,0 6.07,-1.08 8.38,-3.24l41.97 -39.13 -41.97 -39.13c-2.31,-2.16 -5.35,-3.24 -8.38,-3.24 -3.04,0 -6.07,1.08 -8.38,3.24l-8.39 7.81c-9.26,8.69 -24.32,8.69 -33.59,0.05z"/>
    <path class="fil3" d="M223.82 390.96l-42.03 -39.18c-2.32,-2.16 -3.48,-4.98 -3.48,-7.81 0,-2.83 1.16,-5.65 3.48,-7.81l67.18 -62.63c4.63,-4.32 12.13,-4.32 16.77,0l66.91 62.37c0,0 0.06,0 0.06,0.05l0.49 0.46c0.06,0 0.06,0 0.06,0.05 4.36,4.32 4.25,11.16 -0.28,15.37l-75.61 70.49c-8.94,-8.33 -9.27,-21.65 -1.05,-30.39l43.02 -40.1c2.31,-2.16 3.47,-4.99 3.47,-7.81 0,-2.83 -1.15,-5.66 -3.47,-7.82l-41.97 -39.13 -41.98 39.13c-2.31,2.16 -3.47,4.99 -3.47,7.82 0,2.83 1.16,5.65 3.47,7.81l8.39 7.81c9.32,8.64 9.32,22.67 0.06,31.31z"/>
    <path class="fil4" d="M408.59 281.34l-42.03 39.18c-2.32,2.16 -5.35,3.24 -8.39,3.24 -3.04,0 -6.07,-1.08 -8.38,-3.24l-67.18 -62.62c-4.63,-4.32 -4.63,-11.31 0,-15.63l66.9 -62.37c0,0 0,-0.05 0.06,-0.05l0.5 -0.46c0,-0.05 0,-0.05 0.06,-0.05 4.63,-4.06 11.96,-3.96 16.49,0.26l75.62 70.49c-8.93,8.33 -23.22,8.64 -32.6,0.98l-43.02 -40.11c-2.31,-2.16 -5.35,-3.24 -8.38,-3.24 -3.03,0 -6.07,1.08 -8.38,3.24l-41.97 39.13 41.97 39.13c2.31,2.16 5.35,3.24 8.38,3.24 3.04,0 6.07,-1.08 8.38,-3.24l8.39 -7.81c9.26,-8.69 24.32,-8.69 33.59,-0.05z"/>
   </g>
   <g>
    <path class="fil5" d="M625.81 269.78c0,7.85 -1.4,15.47 -4.12,22.83 -2.72,7.36 -6.91,14.56 -12.43,21.67 -7.07,9.02 -15.23,15.8 -24.63,20.19 -9.4,4.39 -19.96,6.7 -31.69,6.7 -10.41,0 -19.89,-1.82 -28.43,-5.46 -8.54,-3.64 -16.39,-9.18 -23.54,-16.54 -14.06,-14.64 -21.13,-32.67 -21.13,-54.1 0,-21.43 7.15,-39.46 21.36,-54.1 14.06,-14.64 31.22,-21.92 51.65,-21.92 11.34,0 21.9,2.48 31.93,7.44 4.97,2.48 9.56,5.63 13.9,9.43 4.35,3.8 8.39,8.27 12.12,13.4 -2.87,2.98 -5.98,5.21 -9.4,6.78 -1.4,0.66 -3.03,1.24 -4.66,1.65 -1.71,0.42 -3.5,0.58 -5.36,0.5 -1.86,-0.08 -3.81,-0.5 -5.83,-1.16 -2.02,-0.66 -4.12,-1.82 -6.22,-3.39 -3.72,-2.98 -7.84,-5.3 -12.19,-6.78 -4.35,-1.49 -9.17,-2.31 -14.37,-2.31 -12.43,0 -23.3,4.88 -32.63,14.64 -9.24,9.84 -13.91,21.76 -13.91,35.81 0,7.03 1.17,13.57 3.5,19.44 2.33,5.96 5.82,11.42 10.48,16.3 4.66,4.96 9.71,8.69 15.15,11.08 5.36,2.48 11.19,3.72 17.48,3.72 5.75,0 11.19,-0.83 16.08,-2.56 4.97,-1.74 9.48,-4.39 13.67,-7.94 8.23,-6.78 13.67,-16.46 16.39,-28.95l-20.97 0c-3.41,0 -6.44,-0.33 -8.93,-1.07 -2.57,-0.74 -4.74,-1.73 -6.61,-2.89 -1.86,-1.16 -3.34,-2.56 -4.58,-4.14 -1.17,-1.57 -2.17,-3.14 -2.87,-4.71 -1.71,-3.81 -2.56,-8.11 -2.41,-12.99l73.24 0 0 19.44 -0.07 0z"/>
    <path class="fil5" d="M756.46 338.27l-104.24 0 0 -145.91 104.24 0c0,3.47 -0.39,6.53 -1.16,9.1 -0.78,2.57 -1.79,4.8 -3.03,6.7 -1.24,1.9 -2.72,3.39 -4.35,4.63 -1.63,1.24 -3.26,2.15 -4.89,2.89 -3.96,1.74 -8.39,2.4 -13.36,2.23l-52.28 0 0 32.76 55.07 0c0,3.22 -0.31,6.12 -1.01,8.6 -0.7,2.48 -1.55,4.63 -2.64,6.45 -1.08,1.82 -2.33,3.31 -3.72,4.55 -1.4,1.24 -2.8,2.23 -4.27,3.06 -3.42,1.82 -7.3,2.81 -11.65,2.98l-31.85 0 0 36.56 55.61 0c3.03,0 5.67,0.33 8,1.07 2.33,0.75 4.28,1.74 5.91,2.9 1.63,1.16 3.03,2.56 4.19,4.05 1.17,1.49 2.02,3.06 2.72,4.72 1.7,3.64 2.56,7.94 2.72,12.65z"/>
    <path class="fil5" d="M885.01 338.02l-103.46 0 0 -145.58 25.09 0 0 120.11 53.2 0c3.34,0 6.22,0.33 8.7,1.08 2.48,0.74 4.66,1.73 6.44,2.89 1.79,1.24 3.26,2.57 4.51,4.14 1.17,1.49 2.17,3.06 2.87,4.63 1.78,3.8 2.64,8.02 2.64,12.74z"/>
    <path class="fil5" d="M1016.43 338.27l-104.24 0 0 -145.91 104.24 0c0,3.47 -0.39,6.53 -1.17,9.1 -0.78,2.57 -1.78,4.8 -3.03,6.7 -1.24,1.9 -2.72,3.39 -4.35,4.63 -1.63,1.24 -3.26,2.15 -4.89,2.89 -3.96,1.74 -8.39,2.4 -13.36,2.23l-52.27 0 0 32.76 55.07 0c0,3.22 -0.31,6.12 -1.01,8.6 -0.7,2.48 -1.56,4.63 -2.64,6.45 -1.09,1.82 -2.33,3.31 -3.73,4.55 -1.4,1.24 -2.79,2.23 -4.27,3.06 -3.42,1.82 -7.3,2.81 -11.65,2.98l-31.85 0 0 36.56 55.61 0c3.03,0 5.67,0.33 8,1.07 2.33,0.75 4.27,1.74 5.91,2.9 1.63,1.16 3.03,2.56 4.19,4.05 1.17,1.49 2.02,3.06 2.72,4.72 1.78,3.64 2.64,7.94 2.72,12.65z"/>
    <path class="fil5" d="M1067.39 338.02l-25.24 0 0 -147.82c4.74,-0.17 8.93,0.67 12.74,2.48 1.63,0.74 3.19,1.82 4.66,3.06 1.48,1.24 2.88,2.9 4.12,4.88 1.17,1.98 2.18,4.3 2.87,7.11 0.7,2.81 1.09,6.04 1.09,9.68 0,1.24 0,3.22 0,5.96 0,2.73 0,6.12 0,10.09 0,3.97 0,8.35 0,13.24 0,4.88 0,9.93 0,15.22 0,5.3 0,10.67 0,16.21 0,5.54 0,10.92 0,16.21 0,5.29 0,10.34 0,15.14 0,4.8 0,9.18 0,12.98 0,3.89 0,7.12 0,9.85 -0.24,2.73 -0.24,4.63 -0.24,5.7z"/>
    <path class="fil5" d="M1194.39 218.24c-1.86,-0.08 -3.65,0.08 -5.36,0.58 -0.78,0.25 -1.55,0.5 -2.33,0.83 -0.78,0.33 -1.63,0.82 -2.41,1.4 -0.78,0.58 -1.55,1.24 -2.33,2.07 -0.78,0.83 -1.48,1.74 -2.1,2.89 -1.32,2.4 -2.02,4.55 -2.17,6.62 -0.16,2.07 -0.08,3.8 0.23,5.38 0.39,1.82 1.01,3.47 1.94,4.96 0.78,1.41 1.78,2.73 3.11,3.81 1.17,0.99 2.64,1.82 4.43,2.65 1.87,0.83 4.12,1.16 6.92,1.16l30.21 0c12.2,0 22.14,3.81 29.91,11.5 3.88,3.81 6.83,8.19 8.7,13.31 1.86,5.05 2.87,10.76 2.87,17.21l-0.08 2.98c0,6.37 -0.93,12.08 -2.87,17.13 -1.87,5.04 -4.82,9.51 -8.7,13.31 -7.76,7.61 -17.71,11.41 -29.83,11.41l-43.81 0c-4.5,0 -8.54,-0.82 -12.04,-2.56 -1.48,-0.74 -2.95,-1.74 -4.43,-2.89 -1.48,-1.16 -2.72,-2.65 -3.89,-4.47 -1.17,-1.82 -2.02,-3.97 -2.72,-6.45 -0.7,-2.48 -1.01,-5.46 -1.01,-8.77l69.13 0c1.78,-0.17 3.5,-0.58 5.13,-1.24 1.4,-0.5 2.87,-1.32 4.35,-2.4 1.48,-1.07 2.8,-2.56 3.8,-4.46 0.78,-1.24 1.4,-2.57 1.79,-3.8 0.39,-1.24 0.7,-2.48 0.85,-3.64 0.16,-1.16 0.23,-2.23 0.16,-3.31 -0.08,-1.07 -0.16,-1.98 -0.39,-2.98 -0.47,-2.15 -1.24,-4.13 -2.33,-5.96 -1.01,-1.49 -2.25,-2.89 -3.57,-4.05 -0.62,-0.5 -1.24,-1.07 -1.94,-1.57 -0.7,-0.5 -1.48,-0.91 -2.41,-1.32 -0.93,-0.41 -1.79,-0.67 -2.8,-0.91 -1.01,-0.25 -2.1,-0.33 -3.19,-0.33l-32.08 0c-11.81,0 -21.36,-3.64 -28.74,-11 -7.46,-7.28 -11.19,-17.04 -11.19,-29.28l0.07 -2.89c0,-12.08 3.73,-21.83 11.11,-29.28 7.54,-7.37 17.09,-11 28.74,-11l45.28 -0.09c4.5,-0.16 8.54,0.67 12.04,2.32 1.48,0.74 2.95,1.74 4.43,2.89 1.48,1.16 2.72,2.73 3.81,4.55 1.09,1.82 2.02,4.06 2.72,6.62 0.7,2.56 1.01,5.63 1.01,9.02l-68.04 0 0 0.08z"/>
    <path class="fil5" d="M1332.49 284.42l-13.43 0 0 23.91 0 1.82c0,4.22 -0.39,7.94 -1.09,11.09 -0.7,3.14 -1.64,5.79 -2.87,7.94 -1.24,2.15 -2.57,3.97 -4.04,5.38 -1.48,1.41 -3.04,2.48 -4.58,3.31 -3.73,1.91 -7.85,2.65 -12.51,2.24l0 -147.24 64.47 0c5.74,0 10.95,0.74 15.61,2.23 4.65,1.49 8.77,3.47 12.34,5.87 3.58,2.4 6.69,5.21 9.32,8.27 2.64,3.06 4.74,6.29 6.44,9.51 1.71,3.22 2.96,6.45 3.73,9.51 0.78,3.14 1.17,5.87 1.17,8.35 0,3.64 -0.24,6.95 -0.78,10.01 -0.54,3.06 -1.31,5.95 -2.41,8.69 -1.09,2.73 -2.4,5.29 -4.04,7.78 -1.63,2.48 -3.5,4.88 -5.68,7.2 -5.58,5.87 -12.26,9.84 -20.03,11.99l-0.31 0.08 36.04 55.67 -31.38 0 -26.09 -42.76c-0.94,-1.99 -2.25,-3.81 -3.96,-5.46 -0.78,-0.66 -1.63,-1.32 -2.64,-1.98 -1.01,-0.66 -2.1,-1.24 -3.41,-1.74 -1.32,-0.5 -2.72,-0.91 -4.35,-1.24 -1.79,-0.33 -3.57,-0.42 -5.52,-0.42zm49.48 -47.89c0,-1.16 -0.16,-2.4 -0.47,-3.81 -0.31,-1.33 -0.85,-2.73 -1.56,-4.06 -0.78,-1.32 -1.78,-2.65 -3.03,-3.89 -1.24,-1.24 -2.8,-2.4 -4.66,-3.31 -1.86,-0.99 -4.12,-1.74 -6.68,-2.31 -2.57,-0.58 -5.59,-0.91 -9.01,-0.91l-37.52 0 0 30.28c0.47,1.41 1.16,2.65 2.09,3.72 0.93,1.07 1.94,1.91 3.03,2.65 1.09,0.74 2.33,1.32 3.57,1.82 1.24,0.5 2.49,0.83 3.72,1.16 2.88,0.66 6.06,0.91 9.4,0.83l15.69 0c4.19,0 7.84,-0.66 11.03,-1.9 3.18,-1.24 5.83,-3.14 8.08,-5.46 1.01,-1.07 1.94,-2.15 2.72,-3.14 0.78,-1 1.48,-2.07 1.94,-3.23 0.47,-1.15 0.94,-2.31 1.17,-3.64 0.31,-1.49 0.47,-2.98 0.47,-4.8z"/>
    <path class="fil5" d="M1466.32 218.24c-1.87,-0.08 -3.65,0.08 -5.36,0.58 -0.77,0.25 -1.55,0.5 -2.33,0.83 -0.78,0.33 -1.63,0.82 -2.41,1.4 -0.78,0.58 -1.56,1.24 -2.33,2.07 -0.78,0.83 -1.47,1.74 -2.09,2.89 -1.32,2.4 -2.02,4.55 -2.18,6.62 -0.16,2.07 -0.08,3.8 0.23,5.38 0.39,1.82 1.01,3.47 1.94,4.96 0.77,1.41 1.78,2.73 3.11,3.81 1.17,0.99 2.64,1.82 4.43,2.65 1.86,0.83 4.11,1.16 6.91,1.16l30.21 0c12.2,0 22.15,3.81 29.91,11.5 3.88,3.81 6.83,8.19 8.7,13.31 1.87,5.05 2.88,10.76 2.88,17.21l-0.08 2.98c0,6.37 -0.93,12.08 -2.88,17.13 -1.86,5.04 -4.81,9.51 -8.69,13.31 -7.77,7.61 -17.72,11.41 -29.83,11.41l-43.81 0c-4.5,0 -8.54,-0.82 -12.04,-2.56 -1.48,-0.74 -2.96,-1.74 -4.43,-2.89 -1.48,-1.16 -2.72,-2.65 -3.89,-4.47 -1.17,-1.82 -2.02,-3.97 -2.72,-6.45 -0.7,-2.48 -1.01,-5.46 -1.01,-8.77l69.13 0c1.78,-0.17 3.49,-0.58 5.13,-1.24 1.39,-0.5 2.87,-1.32 4.35,-2.4 1.47,-1.07 2.8,-2.56 3.81,-4.46 0.77,-1.24 1.39,-2.57 1.78,-3.8 0.39,-1.24 0.7,-2.48 0.85,-3.64 0.16,-1.16 0.23,-2.23 0.16,-3.31 -0.08,-1.07 -0.16,-1.98 -0.39,-2.98 -0.47,-2.15 -1.25,-4.13 -2.33,-5.96 -1.01,-1.49 -2.26,-2.89 -3.58,-4.05 -0.61,-0.5 -1.24,-1.07 -1.94,-1.57 -0.7,-0.5 -1.48,-0.91 -2.41,-1.32 -0.93,-0.41 -1.79,-0.67 -2.8,-0.91 -1.01,-0.25 -2.09,-0.33 -3.19,-0.33l-32.08 0c-11.8,0 -21.35,-3.64 -28.73,-11 -7.46,-7.28 -11.19,-17.04 -11.19,-29.28l0.08 -2.89c0,-12.08 3.73,-21.83 11.11,-29.28 7.54,-7.37 17.08,-11 28.73,-11l45.29 -0.09c4.5,-0.16 8.54,0.67 12.04,2.32 1.47,0.74 2.95,1.74 4.43,2.89 1.47,1.16 2.71,2.73 3.81,4.55 1.08,1.82 2.01,4.06 2.71,6.62 0.7,2.56 1.01,5.63 1.01,9.02l-68.04 0 0 0.08z"/>
    <path class="fil5" d="M1674.96 338.11c-4.74,0.25 -8.93,-0.58 -12.59,-2.57 -1.63,-0.83 -3.18,-1.98 -4.66,-3.31 -1.47,-1.32 -2.87,-3.15 -4.04,-5.3 -1.17,-2.15 -2.09,-4.8 -2.87,-7.78 -0.7,-3.06 -1.09,-6.62 -1.09,-10.75l0 -32.26 -62.06 0 0 32.43c0,4.05 -0.39,7.61 -1.09,10.59 -0.69,2.98 -1.7,5.63 -2.87,7.78 -1.17,2.15 -2.56,3.97 -4.04,5.3 -1.48,1.32 -3.03,2.48 -4.59,3.31 -3.72,1.98 -7.92,2.81 -12.57,2.57l0 -146.17c4.65,-0.17 8.93,0.66 12.57,2.48 1.56,0.74 3.11,1.82 4.59,3.06 1.48,1.24 2.87,2.89 4.04,4.88 1.17,1.98 2.1,4.3 2.87,7.03 0.78,2.73 1.09,5.96 1.09,9.59l0 31.35 62.06 0 0 -31.93c0,-3.56 0.39,-6.62 1.09,-9.26 0.7,-2.65 1.63,-4.96 2.87,-6.87 1.24,-1.91 2.57,-3.47 4.04,-4.71 1.48,-1.24 3.11,-2.24 4.66,-3.06 3.73,-1.82 7.93,-2.65 12.59,-2.56l0 146.17z"/>
    <path class="fil5" d="M1775.23 218.49l-15.38 0 0 95.13c0,3.56 -0.39,6.61 -1.09,9.26 -0.7,2.65 -1.71,4.88 -2.87,6.78 -1.17,1.91 -2.56,3.39 -4.04,4.63 -1.48,1.24 -3.1,2.24 -4.66,2.98 -3.73,1.74 -7.92,2.57 -12.66,2.4l0 -121.1 -13.82 0c-4.9,-0.08 -9.25,-1.07 -13.05,-2.89 -1.63,-0.74 -3.26,-1.74 -4.82,-2.98 -1.55,-1.24 -2.95,-2.73 -4.19,-4.55 -1.24,-1.82 -2.18,-3.97 -2.96,-6.54 -0.78,-2.56 -1.08,-5.46 -1.08,-8.77l105.17 0c0,4.8 -0.78,9.1 -2.41,12.82 -0.7,1.57 -1.63,3.15 -2.8,4.72 -1.17,1.57 -2.64,2.9 -4.43,4.13 -1.78,1.24 -3.88,2.15 -6.37,2.9 -2.49,0.74 -5.28,1.07 -8.55,1.07z"/>
    <path class="fil5" d="M1901.84 311.63l-36.12 0.08c-4.74,0.17 -8.93,-0.66 -12.66,-2.32 -1.63,-0.74 -3.18,-1.65 -4.66,-2.81 -1.47,-1.16 -2.87,-2.73 -4.04,-4.55 -1.16,-1.82 -2.09,-3.97 -2.87,-6.54 -0.7,-2.56 -1.09,-5.54 -1.09,-8.93l61.52 0 0 -29.61c0,-6.62 -0.85,-12.49 -2.57,-17.7 -1.7,-5.21 -4.19,-9.76 -7.61,-13.65 -6.75,-7.86 -15.22,-11.74 -25.39,-11.74 -5.13,0 -9.79,0.99 -13.98,2.89 -4.2,1.9 -8,4.88 -11.34,8.85 -6.76,7.69 -10.09,18.2 -10.09,31.35l0 81.23 -25.48 0 0 -87.02c0,-17.45 5.68,-32.26 17.02,-44.59 5.74,-6.12 12.28,-10.75 19.57,-13.81 7.3,-3.06 15.38,-4.63 24.39,-4.63 9.01,0 17.16,1.57 24.39,4.63 7.23,3.06 13.75,7.7 19.43,13.81 11.5,12.33 17.24,27.13 17.24,44.59l0 87.02 -25.47 0 0 -26.47 -0.16 0 0 -0.08z"/>
   </g>
  </g>
 </g>
</svg>
