<?xml version="1.0" encoding="UTF-8"?>
<!DOCTYPE svg PUBLIC "-//W3C//DTD SVG 1.1//EN" "http://www.w3.org/Graphics/SVG/1.1/DTD/svg11.dtd">
<!-- Creator: CorelDRAW 2021 (64-Bit) -->
<svg xmlns="http://www.w3.org/2000/svg" xml:space="preserve" width="10in" height="5in" version="1.1" style="shape-rendering:geometricPrecision; text-rendering:geometricPrecision; image-rendering:optimizeQuality; fill-rule:evenodd; clip-rule:evenodd"
viewBox="0 0 10000 5000"
 xmlns:xlink="http://www.w3.org/1999/xlink"
 xmlns:xodm="http://www.corel.com/coreldraw/odm/2003">
 <defs>
  <style type="text/css">
   <![CDATA[
    .fil2 {fill:#848688}
    .fil1 {fill:#CCCCCC}
    .fil0 {fill:url(#id46)}
    .fil8 {fill:url(#id47);fill-rule:nonzero}
    .fil5 {fill:url(#id48);fill-rule:nonzero}
    .fil4 {fill:url(#id49);fill-rule:nonzero}
    .fil7 {fill:url(#id50);fill-rule:nonzero}
    .fil11 {fill:url(#id51);fill-rule:nonzero}
    .fil9 {fill:url(#id52);fill-rule:nonzero}
    .fil6 {fill:url(#id53);fill-rule:nonzero}
    .fil3 {fill:url(#id54);fill-rule:nonzero}
    .fil10 {fill:url(#id55);fill-rule:nonzero}
   ]]>
  </style>
   <mask id="id0">
  <linearGradient id="id1" gradientUnits="userSpaceOnUse" x1="3278.71" y1="3186.08" x2="9890.79" y2="3186.08">
   <stop offset="0" style="stop-opacity:0.729412; stop-color:white"/>
   <stop offset="1" style="stop-opacity:1; stop-color:white"/>
  </linearGradient>
    <rect style="fill:url(#id1)" x="3278.72" y="2125.14" width="6321.59" height="2121.9"/>
   </mask>
   <mask id="id2">
  <linearGradient id="id3" gradientUnits="userSpaceOnUse" x1="4320.99" y1="2178.07" x2="4903.59" y2="2178.07">
   <stop offset="0" style="stop-opacity:0.729412; stop-color:white"/>
   <stop offset="1" style="stop-opacity:1; stop-color:white"/>
  </linearGradient>
    <rect style="fill:url(#id3)" x="4320.99" y="1824.32" width="582.6" height="707.51"/>
   </mask>
    <mask id="id4">
  <linearGradient id="id5" gradientUnits="userSpaceOnUse" x1="1622.52" y1="3815.33" x2="2760.68" y2="3815.33">
   <stop offset="0" style="stop-opacity:0; stop-color:white"/>
   <stop offset="1" style="stop-opacity:1; stop-color:white"/>
  </linearGradient>
     <rect style="fill:url(#id5)" x="1622.52" y="3631.89" width="1138.17" height="366.87"/>
    </mask>
    <mask id="id6">
  <linearGradient id="id7" gradientUnits="userSpaceOnUse" x1="2622.27" y1="3834.52" x2="2900.25" y2="3834.52">
   <stop offset="0" style="stop-opacity:0; stop-color:white"/>
   <stop offset="1" style="stop-opacity:1; stop-color:white"/>
  </linearGradient>
     <rect style="fill:url(#id7)" x="2622.26" y="3624.56" width="277.99" height="419.93"/>
    </mask>
    <mask id="id8">
  <linearGradient id="id9" gradientUnits="userSpaceOnUse" x1="2680.93" y1="3817.64" x2="2989.47" y2="3817.64">
   <stop offset="0" style="stop-opacity:0; stop-color:white"/>
   <stop offset="1" style="stop-opacity:1; stop-color:white"/>
  </linearGradient>
     <rect style="fill:url(#id9)" x="2680.93" y="3617.11" width="308.54" height="401.05"/>
    </mask>
    <mask id="id10">
  <linearGradient id="id11" gradientUnits="userSpaceOnUse" x1="2847.33" y1="3783.66" x2="3097.94" y2="3783.66">
   <stop offset="0" style="stop-opacity:0; stop-color:white"/>
   <stop offset="1" style="stop-opacity:1; stop-color:white"/>
  </linearGradient>
     <rect style="fill:url(#id11)" x="2847.33" y="3621.89" width="250.61" height="323.55"/>
    </mask>
    <mask id="id12">
  <linearGradient id="id13" gradientUnits="userSpaceOnUse" x1="3065.48" y1="3659.2" x2="3273.69" y2="3659.2">
   <stop offset="0" style="stop-opacity:0; stop-color:white"/>
   <stop offset="1" style="stop-opacity:1; stop-color:white"/>
  </linearGradient>
     <rect style="fill:url(#id13)" x="3065.48" y="3531.9" width="208.2" height="254.61"/>
    </mask>
    <mask id="id14">
  <linearGradient id="id15" gradientUnits="userSpaceOnUse" x1="3187.65" y1="1959.72" x2="4893.26" y2="1959.72">
   <stop offset="0" style="stop-opacity:0; stop-color:white"/>
   <stop offset="1" style="stop-opacity:1; stop-color:white"/>
  </linearGradient>
     <rect style="fill:url(#id15)" x="3187.65" y="378.17" width="1705.61" height="3163.1"/>
    </mask>
    <mask id="id16">
  <linearGradient id="id17" gradientUnits="userSpaceOnUse" x1="3164.43" y1="1790.39" x2="4175.85" y2="1790.39">
   <stop offset="0" style="stop-opacity:0; stop-color:white"/>
   <stop offset="1" style="stop-opacity:1; stop-color:white"/>
  </linearGradient>
     <rect style="fill:url(#id17)" x="3164.43" y="41.16" width="1011.42" height="3498.47"/>
    </mask>
    <mask id="id18">
  <linearGradient id="id19" gradientUnits="userSpaceOnUse" x1="1622.52" y1="3815.33" x2="2760.68" y2="3815.33">
   <stop offset="0" style="stop-opacity:0; stop-color:white"/>
   <stop offset="1" style="stop-opacity:1; stop-color:white"/>
  </linearGradient>
     <rect style="fill:url(#id19)" x="1622.52" y="3631.89" width="1138.17" height="366.87"/>
    </mask>
    <mask id="id20">
  <linearGradient id="id21" gradientUnits="userSpaceOnUse" x1="2622.27" y1="3834.52" x2="2900.25" y2="3834.52">
   <stop offset="0" style="stop-opacity:0; stop-color:white"/>
   <stop offset="1" style="stop-opacity:1; stop-color:white"/>
  </linearGradient>
     <rect style="fill:url(#id21)" x="2622.26" y="3624.56" width="277.99" height="419.93"/>
    </mask>
    <mask id="id22">
  <linearGradient id="id23" gradientUnits="userSpaceOnUse" x1="2680.93" y1="3817.64" x2="2989.47" y2="3817.64">
   <stop offset="0" style="stop-opacity:0; stop-color:white"/>
   <stop offset="1" style="stop-opacity:1; stop-color:white"/>
  </linearGradient>
     <rect style="fill:url(#id23)" x="2680.93" y="3617.11" width="308.54" height="401.05"/>
    </mask>
    <mask id="id24">
  <linearGradient id="id25" gradientUnits="userSpaceOnUse" x1="2847.33" y1="3783.66" x2="3097.94" y2="3783.66">
   <stop offset="0" style="stop-opacity:0; stop-color:white"/>
   <stop offset="1" style="stop-opacity:1; stop-color:white"/>
  </linearGradient>
     <rect style="fill:url(#id25)" x="2847.33" y="3621.89" width="250.61" height="323.55"/>
    </mask>
    <mask id="id26">
  <linearGradient id="id27" gradientUnits="userSpaceOnUse" x1="3065.48" y1="3659.2" x2="3273.69" y2="3659.2">
   <stop offset="0" style="stop-opacity:0; stop-color:white"/>
   <stop offset="1" style="stop-opacity:1; stop-color:white"/>
  </linearGradient>
     <rect style="fill:url(#id27)" x="3065.48" y="3531.9" width="208.2" height="254.61"/>
    </mask>
    <mask id="id28">
  <linearGradient id="id29" gradientUnits="userSpaceOnUse" x1="3187.65" y1="1959.72" x2="4893.26" y2="1959.72">
   <stop offset="0" style="stop-opacity:0; stop-color:white"/>
   <stop offset="1" style="stop-opacity:1; stop-color:white"/>
  </linearGradient>
     <rect style="fill:url(#id29)" x="3187.65" y="378.17" width="1705.61" height="3163.1"/>
    </mask>
    <mask id="id30">
  <linearGradient id="id31" gradientUnits="userSpaceOnUse" x1="3164.43" y1="1790.39" x2="4175.85" y2="1790.39">
   <stop offset="0" style="stop-opacity:0; stop-color:white"/>
   <stop offset="1" style="stop-opacity:1; stop-color:white"/>
  </linearGradient>
     <rect style="fill:url(#id31)" x="3164.43" y="41.16" width="1011.42" height="3498.47"/>
    </mask>
    <mask id="id32">
  <linearGradient id="id33" gradientUnits="userSpaceOnUse" x1="1622.52" y1="3815.33" x2="2760.68" y2="3815.33">
   <stop offset="0" style="stop-opacity:0; stop-color:white"/>
   <stop offset="1" style="stop-opacity:1; stop-color:white"/>
  </linearGradient>
     <rect style="fill:url(#id33)" x="1622.52" y="3631.89" width="1138.17" height="366.87"/>
    </mask>
    <mask id="id34">
  <linearGradient id="id35" gradientUnits="userSpaceOnUse" x1="2622.27" y1="3834.52" x2="2900.25" y2="3834.52">
   <stop offset="0" style="stop-opacity:0; stop-color:white"/>
   <stop offset="1" style="stop-opacity:1; stop-color:white"/>
  </linearGradient>
     <rect style="fill:url(#id35)" x="2622.26" y="3624.56" width="277.99" height="419.93"/>
    </mask>
    <mask id="id36">
  <linearGradient id="id37" gradientUnits="userSpaceOnUse" x1="2680.93" y1="3817.64" x2="2989.47" y2="3817.64">
   <stop offset="0" style="stop-opacity:0; stop-color:white"/>
   <stop offset="1" style="stop-opacity:1; stop-color:white"/>
  </linearGradient>
     <rect style="fill:url(#id37)" x="2680.93" y="3617.11" width="308.54" height="401.05"/>
    </mask>
    <mask id="id38">
  <linearGradient id="id39" gradientUnits="userSpaceOnUse" x1="2847.33" y1="3783.66" x2="3097.94" y2="3783.66">
   <stop offset="0" style="stop-opacity:0; stop-color:white"/>
   <stop offset="1" style="stop-opacity:1; stop-color:white"/>
  </linearGradient>
     <rect style="fill:url(#id39)" x="2847.33" y="3621.89" width="250.61" height="323.55"/>
    </mask>
    <mask id="id40">
  <linearGradient id="id41" gradientUnits="userSpaceOnUse" x1="3065.48" y1="3659.2" x2="3273.69" y2="3659.2">
   <stop offset="0" style="stop-opacity:0; stop-color:white"/>
   <stop offset="1" style="stop-opacity:1; stop-color:white"/>
  </linearGradient>
     <rect style="fill:url(#id41)" x="3065.48" y="3531.9" width="208.2" height="254.61"/>
    </mask>
    <mask id="id42">
  <linearGradient id="id43" gradientUnits="userSpaceOnUse" x1="3187.65" y1="1959.72" x2="4893.26" y2="1959.72">
   <stop offset="0" style="stop-opacity:0; stop-color:white"/>
   <stop offset="1" style="stop-opacity:1; stop-color:white"/>
  </linearGradient>
     <rect style="fill:url(#id43)" x="3187.65" y="378.17" width="1705.61" height="3163.1"/>
    </mask>
    <mask id="id44">
  <linearGradient id="id45" gradientUnits="userSpaceOnUse" x1="3164.43" y1="1790.39" x2="4175.85" y2="1790.39">
   <stop offset="0" style="stop-opacity:0; stop-color:white"/>
   <stop offset="1" style="stop-opacity:1; stop-color:white"/>
  </linearGradient>
     <rect style="fill:url(#id45)" x="3164.43" y="41.16" width="1011.42" height="3498.47"/>
    </mask>
  <linearGradient id="id46" gradientUnits="userSpaceOnUse" x1="3278.71" y1="3186.08" x2="9890.79" y2="3186.08">
   <stop offset="0" style="stop-opacity:1; stop-color:#CCCCCC"/>
   <stop offset="1" style="stop-opacity:1; stop-color:white"/>
  </linearGradient>
  <linearGradient id="id47" gradientUnits="objectBoundingBox" x1="3.51096e-05%" y1="50%" x2="100%" y2="50%">
   <stop offset="0" style="stop-opacity:1; stop-color:#6699FF"/>
   <stop offset="1" style="stop-opacity:1; stop-color:#00FFF7"/>
  </linearGradient>
  <linearGradient id="id48" gradientUnits="objectBoundingBox" xlink:href="#id47" x1="0%" y1="50.0005%" x2="99.9996%" y2="50.0005%">
  </linearGradient>
  <linearGradient id="id49" gradientUnits="objectBoundingBox" xlink:href="#id47" x1="0.00159074%" y1="49.9999%" x2="99.9995%" y2="49.9999%">
  </linearGradient>
  <linearGradient id="id50" gradientUnits="objectBoundingBox" xlink:href="#id47" x1="6.7068e-05%" y1="49.9997%" x2="100%" y2="49.9997%">
  </linearGradient>
  <linearGradient id="id51" gradientUnits="userSpaceOnUse" x1="168.01" y1="3683.75" x2="2918.21" y2="3683.75">
   <stop offset="0" style="stop-opacity:1; stop-color:#002F45"/>
   <stop offset="0.678431" style="stop-opacity:1; stop-color:#4DD3FD"/>
   <stop offset="1" style="stop-opacity:1; stop-color:#08F8F9"/>
  </linearGradient>
  <linearGradient id="id52" gradientUnits="objectBoundingBox" xlink:href="#id47" x1="0%" y1="50%" x2="100%" y2="50%">
  </linearGradient>
  <linearGradient id="id53" gradientUnits="objectBoundingBox" xlink:href="#id47" x1="0%" y1="49.9996%" x2="99.9993%" y2="49.9996%">
  </linearGradient>
  <linearGradient id="id54" gradientUnits="objectBoundingBox" xlink:href="#id47" x1="8.08573e-05%" y1="49.9997%" x2="100%" y2="49.9997%">
  </linearGradient>
  <linearGradient id="id55" gradientUnits="userSpaceOnUse" x1="2149.81" y1="2141.09" x2="3427.63" y2="2141.09">
   <stop offset="0" style="stop-opacity:1; stop-color:#273243"/>
   <stop offset="0.25098" style="stop-opacity:1; stop-color:#044E73"/>
   <stop offset="1" style="stop-opacity:1; stop-color:#00FFF7"/>
  </linearGradient>
 </defs>
 <g id="Layer_x0020_1">
  <metadata id="CorelCorpID_0Corel-Layer"/>
  <path class="fil0" style="mask:url(#id0)" d="M4115.56 3039.72l149.48 0 0 -914.58 -173.51 0 -306.98 428.55 -308.31 -428.55 -173.51 0 0 914.58 149.48 0 0 -701.61 313.66 432.46 32.03 0 317.66 -432.46 0 701.61zm981.01 -273.07c12.45,-127.16 -12.02,-223.85 -73.42,-290.04 -61.4,-66.2 -147.25,-99.3 -257.59,-99.3 -102.33,0 -185.52,31.35 -249.6,94.07 -64.06,62.72 -96.09,143.28 -96.09,241.7 0,103.65 32.25,186.39 96.77,248.25 64.5,61.84 150.59,92.76 258.25,92.76 53.39,0 105.67,-9.58 156.84,-28.74 51.16,-19.17 93.21,-46.16 126.12,-81l-89.42 -84.93c-19.57,20.91 -47.39,37.67 -83.41,50.3 -36.04,12.64 -71.86,18.95 -107.46,18.95 -59.61,0 -108.77,-14.81 -147.47,-44.43 -38.72,-29.61 -61.17,-68.8 -67.41,-117.59l533.89 0zm-531.22 -113.66c10.69,-49.64 34.48,-87.97 71.42,-114.98 36.92,-27 81.19,-40.5 132.8,-40.5 56.06,0 101.66,13.5 136.81,40.5 35.14,27 54.5,65.33 58.06,114.98l-399.08 0zm744.77 -429.85l0 172.47 -126.8 0 0 116.28 126.8 0 0 307.04c0,75.78 19.35,133.05 58.05,171.81 38.72,38.76 94.1,57.26 166.17,55.52 43.6,0 87.65,-9.58 132.14,-28.75l-40.05 -114.97c-30.25,14.81 -58.28,22.22 -84.09,22.22 -63.17,0 -94.76,-35.28 -94.76,-105.83l0 -307.04 193.52 0 0 -116.28 -192.19 0 0 -186.83 -138.8 14.37zm994.34 273.06c-20.46,-35.72 -51.17,-64.02 -92.1,-84.93 -40.93,-20.91 -84.97,-31.35 -132.13,-31.35 -97.89,0 -179.08,29.83 -243.58,89.5 -64.52,59.67 -96.77,141.75 -96.77,246.28 0,107.15 31.59,190.76 94.76,250.85 63.17,60.11 144.14,89.71 242.92,88.84 44.48,0 88.3,-10.44 131.46,-31.35 43.15,-20.91 74.97,-50.95 95.43,-90.15l6.67 104.52 130.81 0 0 -644.12 -133.47 0 -4 101.91zm-213.56 6.54c39.16,0 74.09,7.83 104.78,23.51 30.7,15.68 53.83,36.15 69.4,61.42 15.58,25.25 27.14,53.13 34.7,83.61 7.57,30.48 7.57,60.75 0,90.8 -7.56,30.05 -19.12,57.71 -34.7,82.97 -15.56,25.26 -38.7,45.73 -69.4,61.41 -30.69,15.68 -65.62,23.52 -104.78,23.52 -60.49,0 -111.22,-19.59 -152.15,-58.8 -40.93,-39.2 -61.39,-91.04 -61.39,-155.48 0,-64.45 20.46,-116.06 61.39,-154.82 40.93,-38.76 91.66,-58.14 152.15,-58.14zm-2223.59 1445.1l0 -354.06c0,-48.78 14.68,-89.94 44.05,-123.47 29.36,-33.53 68.07,-50.31 116.11,-50.31 47.16,0 83.2,15.91 108.11,47.69 24.91,31.79 37.37,72.95 37.37,123.46l0 356.69 138.81 0 0 -356.69c0,-94.06 -24.02,-167.23 -72.07,-219.5 -48.05,-52.26 -117.01,-78.39 -206.88,-78.39 -102.33,0 -177.51,42.68 -225.56,128.04 -33.81,-86.23 -102.77,-129.34 -206.88,-129.34 -38.26,0 -74.06,7.84 -107.44,23.52 -33.36,15.68 -58.94,40.06 -76.74,73.16l-9.33 -86.24 -128.13 0 0 645.43 137.46 0 0 -354.06c0,-48.78 14.68,-90.15 44.05,-124.13 29.36,-33.96 67.62,-50.95 114.78,-50.95 47.17,0 84.53,16.77 112.13,50.31 27.57,33.53 41.36,75.12 41.36,124.77l0 354.06 138.82 0zm919.6 -657.19c-100.54,0 -182.18,31.79 -244.92,95.38 -62.73,63.59 -94.09,143.72 -94.09,240.4 0,96.69 31.15,176.6 93.43,239.76 62.28,63.14 144.14,94.72 245.57,94.72 102.33,0 184.85,-31.58 247.59,-94.72 62.73,-63.16 94.1,-143.06 94.1,-239.76 0,-95.81 -31.81,-175.72 -95.43,-239.74 -63.61,-64.02 -145.7,-96.04 -246.25,-96.04zm0 124.13c58.73,0 107.22,20.68 145.48,62.06 38.25,41.37 57.4,91.24 57.4,149.59 0,59.24 -18.47,108.88 -55.4,148.95 -36.93,40.06 -86.09,60.09 -147.48,60.09 -61.4,0 -110.34,-20.04 -146.81,-60.09 -36.49,-40.07 -54.74,-89.71 -54.74,-148.95 0,-59.22 18.48,-109.31 55.4,-150.25 36.93,-40.94 85.65,-61.41 146.15,-61.41zm487.17 -111.06l0 644.12 137.47 0 0 -348.84c0,-56.62 16.91,-100.17 50.72,-130.65 33.81,-30.49 76.08,-45.74 126.8,-45.74 44.49,0 83.2,13.07 116.11,39.2l62.74 -117.57c-41.82,-36.59 -96.1,-54.88 -162.83,-54.88 -90.76,0 -155.27,33.09 -193.54,99.3l-9.35 -84.93 -128.13 0zm943.63 527.84c-59.61,0 -109,-19.61 -148.15,-58.8 -39.15,-39.2 -58.73,-87.97 -58.73,-146.33 0,-58.35 18.92,-107.13 56.73,-146.33 37.81,-39.2 87.87,-58.8 150.15,-58.8 62.29,0 112.57,18.95 150.83,56.83 38.26,37.89 57.38,87.33 57.38,148.29 0,60.11 -19.57,109.32 -58.73,147.65 -39.15,38.32 -88.97,57.48 -149.48,57.48zm-218.88 415.48l0 -393.28c23.13,36.59 56.27,63.81 99.42,81.67 43.17,17.85 87.43,26.78 132.81,26.78 100.54,0 181.08,-31.36 241.58,-94.08 60.5,-62.71 90.76,-143.28 90.76,-241.7 0,-97.55 -30.92,-177.68 -92.76,-240.4 -61.85,-62.72 -141.71,-94.51 -239.58,-95.38 -46.26,0 -90.53,10.24 -132.81,30.71 -42.26,20.47 -75.41,49.42 -99.42,86.87l-8.01 -104.52 -129.46 0 0 943.32 137.47 0zm711.39 -1213.77l0 914.57 137.47 0 0 -335.77c0,-54.01 17.13,-99.52 51.39,-136.54 34.25,-37.02 77.63,-55.54 130.13,-55.54 51.6,0 92.09,15.46 121.45,46.38 29.37,30.92 44.05,76 44.05,135.24l0 346.22 137.47 0 0 -347.54c0,-94.94 -22.68,-169.63 -68.06,-224.07 -45.39,-54.44 -113.01,-81.66 -202.88,-81.66 -91.64,0 -162.83,34.84 -213.55,104.52l0 -365.83 -137.47 0zm1097.12 257.38c-100.54,0 -182.18,31.79 -244.92,95.38 -62.73,63.59 -94.1,143.72 -94.1,240.4 0,96.69 31.15,176.6 93.43,239.76 62.29,63.14 144.15,94.72 245.59,94.72 102.33,0 184.85,-31.58 247.58,-94.72 62.73,-63.16 94.1,-143.06 94.1,-239.76 0,-95.81 -31.81,-175.72 -95.43,-239.74 -63.62,-64.02 -145.7,-96.04 -246.25,-96.04zm0 124.13c58.73,0 107.22,20.68 145.48,62.06 38.25,41.37 57.39,91.24 57.39,149.59 0,59.24 -18.46,108.88 -55.39,148.95 -36.93,40.06 -86.09,60.09 -147.48,60.09 -61.4,0 -110.34,-20.04 -146.82,-60.09 -36.48,-40.07 -54.73,-89.71 -54.73,-148.95 0,-59.22 18.48,-109.31 55.39,-150.25 36.93,-40.94 85.65,-61.41 146.15,-61.41zm985.01 -41.81c-65.85,-57.48 -150.38,-86.22 -253.6,-86.22 -71.17,0 -134.58,16.33 -190.19,49 -55.61,32.66 -83.42,81.66 -83.42,146.99 0.89,112.35 90.31,176.8 268.28,193.35 51.6,5.24 90.09,14.38 115.45,27.44 25.37,13.07 37.61,33.54 36.7,61.41 -0.89,27.87 -15.12,48.77 -42.7,62.71 -27.59,13.95 -60.06,20.91 -97.44,20.91 -96.99,-1.74 -173.95,-33.53 -230.91,-95.37l-72.06 95.37c72.06,79.27 172.18,118.89 300.3,118.89 84.53,0 152.15,-18.72 202.87,-56.17 50.72,-37.46 76.53,-86.67 77.42,-147.65 0,-39.19 -8.24,-72.29 -24.7,-99.3 -16.45,-27 -40.04,-47.26 -70.74,-60.75 -30.69,-13.5 -59.61,-23.08 -86.75,-28.75 -27.13,-5.65 -59.39,-10.22 -96.77,-13.72 -94.3,-8.7 -141.91,-36.15 -142.81,-82.3 0,-25.26 12.68,-44.64 38.04,-58.14 25.37,-13.51 59.39,-19.82 102.1,-18.95 71.2,0 129.03,20.02 173.52,60.09l77.41 -88.84zm804.82 303.11c12.45,-127.16 -12.01,-223.84 -73.42,-290.04 -61.39,-66.2 -147.25,-99.29 -257.59,-99.29 -102.33,0 -185.52,31.35 -249.59,94.07 -64.06,62.72 -96.09,143.28 -96.09,241.71 0,103.64 32.25,186.39 96.77,248.24 64.5,61.84 150.59,92.76 258.26,92.76 53.39,0 105.66,-9.58 156.83,-28.74 51.16,-19.17 93.2,-46.16 126.13,-81l-89.43 -84.93c-19.57,20.92 -47.39,37.67 -83.41,50.31 -36.04,12.63 -71.86,18.94 -107.45,18.94 -59.62,0 -108.78,-14.8 -147.48,-44.43 -38.7,-29.61 -61.17,-68.81 -67.41,-117.59l533.89 0zm-531.22 -113.66c10.69,-49.64 34.49,-87.97 71.42,-114.97 36.92,-27 81.18,-40.5 132.79,-40.5 56.06,0 101.66,13.5 136.81,40.5 35.15,27 54.5,65.33 58.06,114.97l-399.08 0z"/>
  <path class="fil1" style="mask:url(#id2)" d="M4366.26 1849.46l25.99 0c6.15,0 13.28,-0.13 21.37,-0.41 8.1,-0.29 17.74,-0.7 28.91,-1.26 36.89,-2.78 69.86,-4.89 98.92,-6.28 29.07,-1.4 49.47,-2.09 61.2,-2.09 6.14,0 10.06,-0.28 11.74,-0.84 1.67,-0.56 4.19,-2.79 7.54,-6.7 4.48,-5.03 8.11,-7.55 10.91,-7.55 3.36,0 5.03,2.8 5.03,8.38 0,1.13 0.28,2.1 0.83,2.94 0.57,0.83 2.8,1.39 6.72,1.67 3.91,0.28 10.05,0.41 18.44,0.41l34.38 0c64.26,0 110.36,1.96 138.31,5.87 27.94,3.91 41.91,10.62 41.91,20.13 0,3.35 -1.82,6.14 -5.45,8.38 -3.62,2.24 -6.84,3.35 -9.63,3.35 -2.8,0 -4.48,-1.12 -5.03,-3.35 0,-1.67 -5.73,-3.22 -17.19,-4.61 -11.46,-1.4 -25.71,-2.8 -42.76,-4.19 -17.04,-1.4 -35.63,-2.38 -55.74,-2.94 -20.12,-0.57 -39.39,-0.84 -57.85,-0.84l-25.98 0c-7.83,0 -14.82,0.28 -20.96,0.84l-12.58 0.83 -47.77 96.41c-13.98,29.06 -26.55,54.63 -37.73,76.71 -11.17,22.06 -20.95,41.77 -29.33,59.09 -8.38,17.33 -15.79,32.56 -22.22,45.69 -6.43,13.13 -12.15,25.29 -17.19,36.46 -17.32,38.01 -33.67,75.31 -49.03,111.91 -15.37,36.6 -28.79,70.28 -40.24,101.01 -11.46,30.74 -20.69,57.43 -27.67,80.05 -6.98,22.64 -11.04,38.98 -12.15,49.05 -0.56,9.5 -2.52,14.25 -5.86,14.25 -1.69,0 -3.08,-0.56 -4.19,-1.69 -2.24,-1.67 -3.36,-5.86 -3.36,-12.57 0,-5.58 1.39,-15.51 4.19,-29.75 2.8,-14.26 9.51,-37.73 20.12,-70.43 10.61,-32.69 24.45,-70.69 41.49,-114.01 17.04,-43.31 36.74,-90.38 59.1,-141.25 4.48,-11.17 6.98,-17.6 7.54,-19.28 0.57,-1.67 0.85,-2.79 0.85,-3.35 0,-1.67 -0.28,-3.08 -0.85,-4.2 -1.11,-2.23 -1.67,-5.31 -1.67,-9.21 0,-10.06 5.32,-27.38 15.93,-51.97 10.62,-24.6 27.66,-56.16 51.13,-94.72 3.92,-6.15 6.7,-10.91 8.38,-14.25 1.68,-3.36 2.52,-6.44 2.52,-9.22 0,-1.12 -0.28,-2.8 -0.84,-5.03 -0.55,-2.24 -2.52,-5.31 -5.86,-9.23 -3.35,-3.9 -8.11,-8.93 -14.26,-15.08 -19.55,-19 -39.81,-32.69 -60.76,-41.07 -20.96,-8.39 -44.85,-12.59 -71.69,-12.59 -7.81,0.56 -14.53,0.98 -20.11,1.26 -5.58,0.29 -10.61,0.42 -15.09,0.42 -8.38,0 -14.53,-0.56 -18.44,-1.69 -3.91,-1.11 -6.42,-2.78 -7.55,-5.02 -1.12,-2.24 -1.67,-4.19 -1.67,-5.86 0,-8.39 15.09,-12.59 45.27,-12.59zm98.92 20.97l5.03 2.5c14.53,7.27 28.78,16.91 42.75,28.93 13.97,12.01 24.04,23.33 30.17,33.94 2.8,4.46 4.48,6.71 5.03,6.71 1.12,0 5.59,-5.87 13.41,-17.61 5.03,-7.27 9.93,-14.67 14.67,-22.22 4.74,-7.55 8.94,-14.39 12.58,-20.54 3.62,-6.15 6.85,-11.18 9.63,-15.09l3.36 -5.87 -21.8 0.85c-14.53,0.55 -30.45,1.25 -47.78,2.08 -17.33,0.84 -33.26,1.82 -47.78,2.94l-21.8 1.68c0.56,0.56 1.39,1.11 2.52,1.68zm-47.79 573.37c0,-5.58 2.8,-15.65 8.38,-30.17 7.83,-20.68 18.72,-44.99 32.7,-72.93 13.97,-27.95 30.03,-57.85 48.2,-89.7 18.16,-31.85 38,-64.54 59.51,-98.07 21.52,-33.53 43.45,-66.22 65.8,-98.07 41.37,-59.24 79.08,-105.49 113.18,-138.74 34.09,-33.24 59.8,-49.88 77.12,-49.88 10.05,0 16.2,5.31 18.44,15.93 0.56,2.23 0.84,4.47 0.84,6.7 0,7.27 -2.93,18.17 -8.81,32.69 -5.86,14.53 -15.64,33.53 -29.33,57 -13.69,23.47 -30.87,49.88 -51.55,79.22 -20.68,29.33 -44.15,60.49 -70.41,93.46 -14.54,17.89 -32.56,38.7 -54.07,62.46 -21.52,23.75 -42.76,46.52 -63.72,68.32 -20.96,21.8 -39.81,40.65 -56.57,56.58 -16.77,15.93 -27.67,25 -32.7,27.24 -2.8,1.12 -6.29,5.73 -10.48,13.83 -4.2,8.1 -9.65,20.26 -16.35,36.47 -2.23,4.46 -3.35,7.26 -3.35,8.39 0,0.56 0.28,0.83 0.84,0.83 0.56,0 10.89,-8.39 31.01,-25.16 100.04,-89.41 159.83,-134.12 179.39,-134.12 5.59,0 8.39,3.36 8.39,10.06 0,5.59 -1.67,13.13 -5.03,22.64 -1.12,4.46 -2.8,9.48 -5.03,15.08 -2.23,5.58 -4.19,10.61 -5.86,15.09 -3.35,10.62 -5.03,19.27 -5.03,25.98 0,11.18 4.74,16.77 14.25,16.77 8.94,0 20.54,-4.74 34.79,-14.24 14.25,-9.51 29.76,-24.04 46.52,-43.59 3.36,-3.35 5.87,-5.03 7.55,-5.03 1.69,0 2.52,0.84 2.52,2.52 0,2.24 -2.52,6.7 -7.55,13.41 -14.53,17.89 -29.75,32 -45.69,42.34 -15.91,10.33 -29.75,15.5 -41.49,15.5 -6.7,0 -12.85,-2.24 -18.44,-6.7 -5.03,-4.48 -7.54,-10.9 -7.54,-19.28 0,-1.69 0.28,-5.59 0.83,-11.74 0.56,-6.15 4.75,-20.12 12.58,-41.92 3.35,-7.81 5.03,-13.41 5.03,-16.77 0,-2.23 -0.84,-3.35 -2.52,-3.35 -2.79,0 -8.66,3.21 -17.6,9.64 -8.94,6.43 -19.14,14.39 -30.6,23.89 -11.46,9.5 -23.75,19.98 -36.88,31.43 -13.14,11.46 -25.57,22.5 -37.31,33.12 -11.74,10.62 -21.8,19.97 -30.18,28.08 -8.39,8.1 -13.97,13.26 -16.76,15.51 -12.85,12.85 -22.35,21.65 -28.5,26.4 -6.14,4.76 -11.45,7.13 -15.93,7.13 -1.12,0 -2.79,-0.56 -5.03,-1.67 -5.03,-2.79 -7.55,-6.99 -7.55,-12.58zm91.38 -137.48c7.26,-6.7 16.49,-15.79 27.66,-27.24 11.18,-11.46 23.2,-23.61 36.05,-36.47 12.84,-12.85 23.75,-24.3 32.69,-34.37 29.06,-31.3 56.86,-63.29 83.4,-95.99 26.55,-32.69 49.88,-63.71 70,-93.04 20.11,-29.34 36.18,-55.33 48.2,-77.96 12.01,-22.64 18.02,-39.26 18.02,-49.88 0,-4.46 -1.67,-6.7 -5.03,-6.7 -5.03,0 -12.85,4.32 -23.47,12.99 -10.61,8.67 -23.05,20.26 -37.31,34.8 -14.24,14.52 -29.33,31.71 -45.26,51.56 -15.93,19.83 -31.72,40.66 -47.37,62.44 -13.97,19 -29.48,41.36 -46.53,67.07 -17.04,25.71 -33.52,51.28 -49.44,76.7 -15.94,25.42 -30.46,49.31 -43.59,71.67 -13.13,22.35 -22.78,39.96 -28.93,52.81 0,0 0,0 0,0 0,0.56 0,0.85 0,0.85 1.12,0 4.76,-3.08 10.91,-9.23zm210.4 27.67c5.03,-20.69 18.73,-43.87 41.08,-69.58 12.3,-14.53 24.46,-25.56 36.47,-33.11 12.01,-7.55 21.93,-11.31 29.76,-11.31 9.51,0 14.25,5.03 14.25,15.09 0,5.02 -2.37,11.17 -7.13,18.44 -4.76,7.26 -10.91,14.66 -18.44,22.21 -7.55,7.55 -16.07,14.67 -25.57,21.38 -9.51,6.71 -19.28,12.29 -29.34,16.77 -2.79,1.12 -5.59,3.63 -8.38,7.54 -2.79,3.91 -5.17,8.1 -7.13,12.58 -1.96,4.46 -3.22,8.24 -3.78,11.31 -0.55,3.07 -0.83,5.17 -0.83,6.28 0,1.67 0.28,3.07 0.83,4.2 2.8,3.35 8.94,5.02 18.44,5.02 8.39,0 18.31,-1.12 29.76,-3.35 11.46,-2.25 23.34,-5.45 35.63,-9.65 12.29,-4.19 24.17,-8.93 35.63,-14.24 11.45,-5.31 21.1,-10.76 28.91,-16.35 4.48,-3.92 8.39,-5.87 11.74,-5.87 1.67,0 2.52,0.84 2.52,2.52 0,0 -0.15,0.7 -0.42,2.09 -0.28,1.39 -2.37,3.77 -6.28,7.12 -7.82,6.7 -18.17,13.41 -31.02,20.11 -12.84,6.72 -26.41,12.59 -40.65,17.61 -14.26,5.03 -28.09,9.22 -41.5,12.58 -13.41,3.35 -24.87,5.03 -34.37,5.03 -7.27,0 -12.58,-0.84 -15.93,-2.52 -10.63,-5.03 -15.93,-13.97 -15.93,-26.83 0,-4.46 0.56,-9.5 1.67,-15.08zm66.22 -55.33c4.48,-2.79 9.51,-6.43 15.09,-10.9 5.03,-4.47 10.06,-9.49 15.09,-15.08 5.02,-5.59 7.54,-9.22 7.54,-10.89 0,-0.57 0,-0.84 0,-0.84 0,0 0,0 0,0 -1.12,0 -3.77,1.67 -7.96,5.02 -4.2,3.36 -9.09,7.56 -14.67,12.59 -5.58,5.03 -10.61,9.78 -15.09,14.24 -4.47,4.48 -6.7,7.27 -6.7,8.39 0,0.56 0.29,0.84 0.84,0.84 0.55,0 2.52,-1.12 5.86,-3.36z"/>
  <path class="fil2" d="M8303.55 4214.63c0.36,-23.52 10.59,-40.63 30.73,-51.32 20.13,-10.69 43.74,-16.04 70.83,-16.04 27.79,0.72 51.13,6.59 70.02,17.64 18.88,11.05 28.33,29.05 28.33,53.98 0,12.83 -3.3,23.87 -9.89,33.15 -6.59,9.26 -15.24,16.29 -25.93,21.11 -10.69,4.81 -21.47,8.28 -32.34,10.42 -10.86,2.13 -21.81,3.2 -32.86,3.2 -19.24,0 -37.07,1.79 -53.45,5.35 -16.4,3.56 -31.98,9.18 -46.77,16.84 -14.79,7.66 -26.46,18.8 -35.01,33.41 -8.55,14.6 -12.82,32.06 -12.82,52.37l0 90.33 293.43 0 0 -44.37 -246.4 0 0 -45.96c0,-42.41 33.85,-63.96 101.56,-64.67 19.24,0 37.15,-1.87 53.72,-5.61 16.56,-3.75 31.97,-9.81 46.23,-18.17 14.25,-8.38 25.57,-20.05 33.93,-35.01 8.38,-14.97 12.57,-32.61 12.57,-52.92 0,-19.95 -4.19,-37.41 -12.57,-52.39 -8.37,-14.96 -19.68,-26.63 -33.93,-35 -14.26,-8.38 -29.49,-14.53 -45.7,-18.44 -16.21,-3.92 -33.58,-5.88 -52.11,-5.88 -18.54,0 -35.91,1.78 -52.12,5.35 -16.21,3.56 -31.62,9.26 -46.23,17.09 -14.61,7.84 -26.37,19.07 -35.27,33.68 -8.91,14.61 -13.72,31.89 -14.43,51.85l46.5 0zm327.11 270.45l45.96 0 0 -175.85 182.27 175.85 57.72 0 0 -3.2 -195.62 -190.81 179.59 -177.45 0 -2.68 -58.26 0 -165.7 165.16 0 -165.16 -45.96 0 0 374.15zm368.8 -270.45c0.36,-23.52 10.6,-40.63 30.73,-51.32 20.13,-10.69 43.74,-16.04 70.82,-16.04 27.8,0.72 51.13,6.59 70.02,17.64 18.88,11.05 28.33,29.05 28.33,53.98 0,12.83 -3.3,23.87 -9.89,33.15 -6.59,9.26 -15.24,16.29 -25.93,21.11 -10.69,4.81 -21.47,8.28 -32.34,10.42 -10.86,2.13 -21.82,3.2 -32.87,3.2 -19.24,0 -37.06,1.79 -53.45,5.35 -16.39,3.56 -31.98,9.18 -46.77,16.84 -14.78,7.66 -26.46,18.8 -35.01,33.41 -8.56,14.6 -12.83,32.06 -12.83,52.37l0 90.33 293.43 0 0 -44.37 -246.39 0 0 -45.96c0,-42.41 33.85,-63.96 101.56,-64.67 19.24,0 37.15,-1.87 53.72,-5.61 16.56,-3.75 31.97,-9.81 46.24,-18.17 14.25,-8.38 25.56,-20.05 33.93,-35.01 8.38,-14.97 12.57,-32.61 12.57,-52.92 0,-19.95 -4.19,-37.41 -12.57,-52.39 -8.37,-14.96 -19.69,-26.63 -33.93,-35 -14.26,-8.38 -29.49,-14.53 -45.7,-18.44 -16.21,-3.92 -33.59,-5.88 -52.12,-5.88 -18.53,0 -35.91,1.78 -52.12,5.35 -16.21,3.56 -31.62,9.26 -46.23,17.09 -14.61,7.84 -26.37,19.07 -35.27,33.68 -8.91,14.61 -13.73,31.89 -14.44,51.85l46.5 0zm513.65 191.87l0 78.57 47.04 0 0 -78.57 45.43 0 0 -43.29 -45.43 0 0 -252.29 -74.83 0 -194.56 244.27 6.41 51.31 215.94 0zm0 -43.29l-173.18 0 173.18 -217.01 0 217.01z"/>
  <g id="_2922816633920">
   <path class="fil3" style="mask:url(#id4)" d="M1624.57 3882.97c168.79,-109.12 366.56,-194.19 570.34,-231.08 179.39,-32.47 363.45,-27.62 536.54,30.95l9.65 4.59c16.77,8.02 22.53,11.01 18.18,20.14l-0.23 0.43c-1.77,3.4 -5.42,7.26 -10.9,13.02 -15.84,16.69 -47.93,50.48 -89.21,130.38 -10.38,20.1 -219.38,86.74 -422.36,122.95 -130.92,23.35 -259.72,34.41 -331.68,12.83 -116.3,-34.89 -144.53,-55.13 -159.06,-65.55 -7.46,-5.35 -10.94,-7.84 -22.79,-8.29 -10.12,-0.39 -18.91,2.35 -27.18,4.93 -21.65,6.75 -40.3,12.55 -72.46,-28.95 -1.46,-1.89 -1.11,-4.63 0.78,-6.09l0.37 -0.25zm571.87 -222.54c-201.01,36.38 -396.19,119.96 -563.21,227.28 26.63,32.65 42.14,27.83 60.06,22.25 8.94,-2.79 18.44,-5.74 30.07,-5.3 14.52,0.56 18.65,3.52 27.54,9.9 14.15,10.14 41.61,29.83 156.49,64.3 70.48,21.14 197.89,10.08 327.69,-13.07 200.81,-35.81 406.52,-99.73 416.15,-118.36 41.84,-80.99 74.51,-115.39 90.64,-132.39 4.94,-5.2 8.24,-8.68 9.44,-10.93l0.11 -0.27c0.7,-1.47 -3.11,-3.34 -14.07,-8.58l-8.83 -4.22c-171.59,-58.04 -354.13,-62.81 -532.09,-30.6z"/>
   <path class="fil4" style="mask:url(#id6)" d="M2623.77 3963.26c-2.01,-57.66 25.15,-124.52 65.67,-183.2 43.46,-62.92 102.44,-116.64 157.33,-139.6 35.5,-14.85 50.36,-19.59 53.12,-12.99 2.08,4.98 -4.99,13.32 -16.47,26.84 -13.57,15.98 -33.96,40.02 -53.31,71.24 -29.15,47.04 -52.46,97.8 -73.15,142.88 -20.92,45.57 -39.21,85.4 -58.37,110.25l-13.11 17.16c-20.42,26.88 -35.4,46.6 -46.01,48.44 -7.28,1.26 -12.07,-3.43 -14.23,-15.85 -5.41,-31.13 -1.83,-62.13 -1.46,-65.17zm72.81 -178.27c-39.64,57.4 -66.19,122.55 -64.13,178.31l-0.02 0.6c-0,0.08 -4.11,31.56 1.36,63.06 1.12,6.43 2.51,9.04 4.2,8.75 7.27,-1.26 21.36,-19.81 40.57,-45.12l13.14 -17.22c18.58,-24.08 36.67,-63.48 57.35,-108.55 20.82,-45.35 44.27,-96.41 73.65,-143.84 19.73,-31.83 40.35,-56.13 54.06,-72.29 9.35,-11.02 15.11,-17.82 15.08,-17.9 -0.06,-0.14 -11.96,5.22 -41.76,17.68 -53.38,22.32 -110.94,74.87 -153.52,136.51z"/>
   <path class="fil5" style="mask:url(#id8)" d="M2886.1 3636.65c0.06,-0.06 21.45,-22.56 55.25,-19.19 4.8,0.48 9.74,0.78 14.37,1.05 11.72,0.69 21.57,1.28 27.58,5.11 8.31,5.29 9.04,14.61 -2.81,33.23 -11.93,18.75 -22.42,39.87 -35.26,65.73 -10.8,21.75 -23.26,46.85 -39.56,76.59 -5.89,10.75 -12.06,22.22 -18.53,34.28 -34.85,64.95 -78.83,146.92 -105.69,161.73 -14.94,8.25 -38.29,17.48 -58.25,21.23 -9.43,1.77 -18.23,2.33 -25.23,1.05 -8.02,-1.49 -13.86,-5.33 -16.12,-12.37 -0.82,-2.57 -1.11,-5.52 -0.79,-8.85 1.25,-12.94 23.76,-58.95 51.82,-111.85 46.5,-87.61 108.61,-195.04 113.98,-201.09 8.39,-9.46 38.87,-46.22 38.95,-46.33l0.28 -0.33zm54.4 -10.55c-28.3,-2.83 -46.58,15.04 -48.13,16.59 -2.48,3 -30.89,37.25 -39.01,46.39 -5.17,5.82 -66.54,112.21 -112.79,199.35 -27.63,52.08 -49.75,97 -50.88,108.62 -0.2,2.13 -0.04,3.92 0.42,5.38 1.14,3.55 4.57,5.59 9.42,6.48 5.87,1.08 13.6,0.54 22.07,-1.05 19.04,-3.57 41.35,-12.42 55.67,-20.31 24.61,-13.57 67.92,-94.28 102.23,-158.23 6.66,-12.42 13,-24.22 18.55,-34.35 16.35,-29.81 28.7,-54.69 39.4,-76.24 12.93,-26.04 23.5,-47.32 35.73,-66.55 8.37,-13.15 9.11,-18.93 5.46,-21.25 -4.09,-2.6 -12.91,-3.13 -23.44,-3.75 -4.56,-0.26 -9.43,-0.56 -14.7,-1.08z"/>
   <path class="fil6" style="mask:url(#id10)" d="M2986.25 3622.84c17.61,3.15 74.01,14.66 89.13,35.46 2.13,2.92 4.09,5.4 6.04,7.86 2.39,3.02 4.77,6.02 6.78,8.85 13.52,19 19.14,38.96 -25.44,70.69 -32.3,22.98 -53.27,60.69 -73.22,96.55 -13.42,24.15 -26.41,47.49 -42.19,65.4 -20.16,22.89 -34.04,33.31 -46.38,36.57 -12.89,3.41 -23.34,-0.81 -36.83,-6.99 -24.31,-11.14 -17.91,-26.89 -7.85,-51.69 2.15,-5.3 4.5,-11.07 6.61,-17.06 4.42,-12.45 20.41,-45.38 38.52,-81.41 18.21,-36.26 38.27,-75.09 51.04,-99.8 4.2,-8.13 9.51,-16.68 14.53,-24.78 8.26,-13.31 15.76,-25.41 15.72,-30.94 0,-0.22 -0.09,-0.42 -0.3,-0.57l-2.81 -0.46c-2.06,-0.33 -3.65,-2.09 -3.66,-4.25 -0.02,-2.39 1.91,-4.36 4.3,-4.37 2.43,-0.02 4.42,0.3 6,0.94zm82.1 40.56c-11.85,-16.31 -55.72,-26.63 -77.01,-30.79 -0.63,8.11 -8.42,20.67 -16.96,34.44 -4.92,7.93 -10.13,16.31 -14.2,24.2 -12.91,24.98 -33.17,64.2 -51.01,99.7 -17.94,35.72 -33.78,68.3 -38.07,80.43 -2.3,6.46 -4.62,12.19 -6.75,17.44 -8.15,20.1 -13.33,32.87 3.39,40.54 11.84,5.42 20.94,9.14 31.02,6.47 10.61,-2.8 23.15,-12.45 42.06,-33.91 15.25,-17.31 27.98,-40.2 41.15,-63.87 20.41,-36.71 41.87,-75.3 75.76,-99.41 38.31,-27.26 34.17,-43.43 23.4,-58.58 -2.11,-2.97 -4.31,-5.74 -6.5,-8.52 -2.21,-2.8 -4.47,-5.64 -6.28,-8.13z"/>
   <path class="fil7" style="mask:url(#id12)" d="M3065.83 3657.54c1.69,-4.39 49.25,-126.73 96.93,-125.63 26.3,0.61 57.91,5.08 80.41,16 18.09,8.77 30.52,21.7 30.52,40.08 0,20.71 -10.77,53.57 -28.2,86.52 -15.55,29.39 -36.47,59.06 -59.82,80.37 -25.15,22.97 -43.02,31.19 -56.66,31.62 -14.38,0.44 -23.72,-7.37 -31.81,-16.04 -6,-6.43 -10.7,-16.95 -12.94,-28.07 -2.14,-10.52 -2.12,-21.76 0.99,-30.75 6.82,-19.72 1.18,-26.28 -10.36,-39.65 -2.5,-2.89 -5.26,-6.07 -8.44,-10.04 -1.03,-1.28 -1.21,-2.98 -0.61,-4.41zm96.76 -116.96c-38.89,-0.89 -81.11,101.06 -87.8,117.87l6.67 7.86c13.71,15.91 20.43,23.72 11.98,48.14 -2.58,7.47 -2.54,17.08 -0.69,26.23 1.95,9.62 5.87,18.58 10.81,23.87 6.68,7.16 14.26,13.61 25.22,13.27 11.69,-0.36 27.64,-7.99 51.05,-29.37 22.57,-20.6 42.85,-49.39 57.98,-77.99 16.81,-31.76 27.19,-63.09 27.19,-82.47 0,-14.44 -10.42,-24.92 -25.59,-32.27 -21.27,-10.31 -51.52,-14.56 -76.8,-15.14z"/>
   <path class="fil8" style="mask:url(#id14)" d="M3195.67 3539.24c-1.28,2.02 -3.96,2.63 -5.99,1.36 -2.02,-1.28 -2.64,-3.96 -1.35,-5.99 58.46,-92.59 198,-406 376.58,-804.22 384.35,-857.04 939.74,-2095.48 1208.42,-2316.76 49.64,-40.89 90.17,-47.98 118.95,-13.03 1.52,1.85 1.25,4.58 -0.6,6.1 -1.85,1.52 -4.58,1.26 -6.1,-0.59 -24.97,-30.32 -61.4,-23.13 -106.75,14.22 -267.09,219.98 -821.98,1457.32 -1206,2313.6 -178.73,398.55 -318.39,712.23 -377.16,805.31z"/>
   <path class="fil9" style="mask:url(#id16)" d="M4170.72 41.23c2.35,-0.43 4.62,1.13 5.05,3.49 0.43,2.35 -1.13,4.62 -3.49,5.04 -248.85,45.84 -328.41,710.93 -389.33,1220.18 -64.15,536.52 -196.87,1027.55 -356.33,1544.54 -99.4,322.27 -182.52,591.42 -254.05,722.87 -1.14,2.1 -3.78,2.87 -5.88,1.74 -2.11,-1.14 -2.88,-3.78 -1.74,-5.89 0.63,-1.16 1.27,-2.33 1.9,-3.51 71.04,-132.09 153.09,-398.82 251.46,-717.76 159.31,-516.51 291.91,-1007 356,-1543.01 61.25,-512.01 141.24,-1180.7 396.41,-1227.7z"/>
   <path class="fil3" style="mask:url(#id18)" d="M1624.57 3882.97c168.79,-109.12 366.56,-194.19 570.34,-231.08 179.39,-32.47 363.45,-27.62 536.54,30.95l9.65 4.59c16.77,8.02 22.53,11.01 18.18,20.14l-0.23 0.43c-1.77,3.4 -5.42,7.26 -10.9,13.02 -15.84,16.69 -47.93,50.48 -89.21,130.38 -10.38,20.1 -219.38,86.74 -422.36,122.95 -130.92,23.35 -259.72,34.41 -331.68,12.83 -116.3,-34.89 -144.53,-55.13 -159.06,-65.55 -7.46,-5.35 -10.94,-7.84 -22.79,-8.29 -10.12,-0.39 -18.91,2.35 -27.18,4.93 -21.65,6.75 -40.3,12.55 -72.46,-28.95 -1.46,-1.89 -1.11,-4.63 0.78,-6.09l0.37 -0.25zm571.87 -222.54c-201.01,36.38 -396.19,119.96 -563.21,227.28 26.63,32.65 42.14,27.83 60.06,22.25 8.94,-2.79 18.44,-5.74 30.07,-5.3 14.52,0.56 18.65,3.52 27.54,9.9 14.15,10.14 41.61,29.83 156.49,64.3 70.48,21.14 197.89,10.08 327.69,-13.07 200.81,-35.81 406.52,-99.73 416.15,-118.36 41.84,-80.99 74.51,-115.39 90.64,-132.39 4.94,-5.2 8.24,-8.68 9.44,-10.93l0.11 -0.27c0.7,-1.47 -3.11,-3.34 -14.07,-8.58l-8.83 -4.22c-171.59,-58.04 -354.13,-62.81 -532.09,-30.6z"/>
   <path class="fil4" style="mask:url(#id20)" d="M2623.77 3963.26c-2.01,-57.66 25.15,-124.52 65.67,-183.2 43.46,-62.92 102.44,-116.64 157.33,-139.6 35.5,-14.85 50.36,-19.59 53.12,-12.99 2.08,4.98 -4.99,13.32 -16.47,26.84 -13.57,15.98 -33.96,40.02 -53.31,71.24 -29.15,47.04 -52.46,97.8 -73.15,142.88 -20.92,45.57 -39.21,85.4 -58.37,110.25l-13.11 17.16c-20.42,26.88 -35.4,46.6 -46.01,48.44 -7.28,1.26 -12.07,-3.43 -14.23,-15.85 -5.41,-31.13 -1.83,-62.13 -1.46,-65.17zm72.81 -178.27c-39.64,57.4 -66.19,122.55 -64.13,178.31l-0.02 0.6c-0,0.08 -4.11,31.56 1.36,63.06 1.12,6.43 2.51,9.04 4.2,8.75 7.27,-1.26 21.36,-19.81 40.57,-45.12l13.14 -17.22c18.58,-24.08 36.67,-63.48 57.35,-108.55 20.82,-45.35 44.27,-96.41 73.65,-143.84 19.73,-31.83 40.35,-56.13 54.06,-72.29 9.35,-11.02 15.11,-17.82 15.08,-17.9 -0.06,-0.14 -11.96,5.22 -41.76,17.68 -53.38,22.32 -110.94,74.87 -153.52,136.51z"/>
   <path class="fil5" style="mask:url(#id22)" d="M2886.1 3636.65c0.06,-0.06 21.45,-22.56 55.25,-19.19 4.8,0.48 9.74,0.78 14.37,1.05 11.72,0.69 21.57,1.28 27.58,5.11 8.31,5.29 9.04,14.61 -2.81,33.23 -11.93,18.75 -22.42,39.87 -35.26,65.73 -10.8,21.75 -23.26,46.85 -39.56,76.59 -5.89,10.75 -12.06,22.22 -18.53,34.28 -34.85,64.95 -78.83,146.92 -105.69,161.73 -14.94,8.25 -38.29,17.48 -58.25,21.23 -9.43,1.77 -18.23,2.33 -25.23,1.05 -8.02,-1.49 -13.86,-5.33 -16.12,-12.37 -0.82,-2.57 -1.11,-5.52 -0.79,-8.85 1.25,-12.94 23.76,-58.95 51.82,-111.85 46.5,-87.61 108.61,-195.04 113.98,-201.09 8.39,-9.46 38.87,-46.22 38.95,-46.33l0.28 -0.33zm54.4 -10.55c-28.3,-2.83 -46.58,15.04 -48.13,16.59 -2.48,3 -30.89,37.25 -39.01,46.39 -5.17,5.82 -66.54,112.21 -112.79,199.35 -27.63,52.08 -49.75,97 -50.88,108.62 -0.2,2.13 -0.04,3.92 0.42,5.38 1.14,3.55 4.57,5.59 9.42,6.48 5.87,1.08 13.6,0.54 22.07,-1.05 19.04,-3.57 41.35,-12.42 55.67,-20.31 24.61,-13.57 67.92,-94.28 102.23,-158.23 6.66,-12.42 13,-24.22 18.55,-34.35 16.35,-29.81 28.7,-54.69 39.4,-76.24 12.93,-26.04 23.5,-47.32 35.73,-66.55 8.37,-13.15 9.11,-18.93 5.46,-21.25 -4.09,-2.6 -12.91,-3.13 -23.44,-3.75 -4.56,-0.26 -9.43,-0.56 -14.7,-1.08z"/>
   <path class="fil6" style="mask:url(#id24)" d="M2986.25 3622.84c17.61,3.15 74.01,14.66 89.13,35.46 2.13,2.92 4.09,5.4 6.04,7.86 2.39,3.02 4.77,6.02 6.78,8.85 13.52,19 19.14,38.96 -25.44,70.69 -32.3,22.98 -53.27,60.69 -73.22,96.55 -13.42,24.15 -26.41,47.49 -42.19,65.4 -20.16,22.89 -34.04,33.31 -46.38,36.57 -12.89,3.41 -23.34,-0.81 -36.83,-6.99 -24.31,-11.14 -17.91,-26.89 -7.85,-51.69 2.15,-5.3 4.5,-11.07 6.61,-17.06 4.42,-12.45 20.41,-45.38 38.52,-81.41 18.21,-36.26 38.27,-75.09 51.04,-99.8 4.2,-8.13 9.51,-16.68 14.53,-24.78 8.26,-13.31 15.76,-25.41 15.72,-30.94 0,-0.22 -0.09,-0.42 -0.3,-0.57l-2.81 -0.46c-2.06,-0.33 -3.65,-2.09 -3.66,-4.25 -0.02,-2.39 1.91,-4.36 4.3,-4.37 2.43,-0.02 4.42,0.3 6,0.94zm82.1 40.56c-11.85,-16.31 -55.72,-26.63 -77.01,-30.79 -0.63,8.11 -8.42,20.67 -16.96,34.44 -4.92,7.93 -10.13,16.31 -14.2,24.2 -12.91,24.98 -33.17,64.2 -51.01,99.7 -17.94,35.72 -33.78,68.3 -38.07,80.43 -2.3,6.46 -4.62,12.19 -6.75,17.44 -8.15,20.1 -13.33,32.87 3.39,40.54 11.84,5.42 20.94,9.14 31.02,6.47 10.61,-2.8 23.15,-12.45 42.06,-33.91 15.25,-17.31 27.98,-40.2 41.15,-63.87 20.41,-36.71 41.87,-75.3 75.76,-99.41 38.31,-27.26 34.17,-43.43 23.4,-58.58 -2.11,-2.97 -4.31,-5.74 -6.5,-8.52 -2.21,-2.8 -4.47,-5.64 -6.28,-8.13z"/>
   <path class="fil7" style="mask:url(#id26)" d="M3065.83 3657.54c1.69,-4.39 49.25,-126.73 96.93,-125.63 26.3,0.61 57.91,5.08 80.41,16 18.09,8.77 30.52,21.7 30.52,40.08 0,20.71 -10.77,53.57 -28.2,86.52 -15.55,29.39 -36.47,59.06 -59.82,80.37 -25.15,22.97 -43.02,31.19 -56.66,31.62 -14.38,0.44 -23.72,-7.37 -31.81,-16.04 -6,-6.43 -10.7,-16.95 -12.94,-28.07 -2.14,-10.52 -2.12,-21.76 0.99,-30.75 6.82,-19.72 1.18,-26.28 -10.36,-39.65 -2.5,-2.89 -5.26,-6.07 -8.44,-10.04 -1.03,-1.28 -1.21,-2.98 -0.61,-4.41zm96.76 -116.96c-38.89,-0.89 -81.11,101.06 -87.8,117.87l6.67 7.86c13.71,15.91 20.43,23.72 11.98,48.14 -2.58,7.47 -2.54,17.08 -0.69,26.23 1.95,9.62 5.87,18.58 10.81,23.87 6.68,7.16 14.26,13.61 25.22,13.27 11.69,-0.36 27.64,-7.99 51.05,-29.37 22.57,-20.6 42.85,-49.39 57.98,-77.99 16.81,-31.76 27.19,-63.09 27.19,-82.47 0,-14.44 -10.42,-24.92 -25.59,-32.27 -21.27,-10.31 -51.52,-14.56 -76.8,-15.14z"/>
   <path class="fil8" style="mask:url(#id28)" d="M3195.67 3539.24c-1.28,2.02 -3.96,2.63 -5.99,1.36 -2.02,-1.28 -2.64,-3.96 -1.35,-5.99 58.46,-92.59 198,-406 376.58,-804.22 384.35,-857.04 939.74,-2095.48 1208.42,-2316.76 49.64,-40.89 90.17,-47.98 118.95,-13.03 1.52,1.85 1.25,4.58 -0.6,6.1 -1.85,1.52 -4.58,1.26 -6.1,-0.59 -24.97,-30.32 -61.4,-23.13 -106.75,14.22 -267.09,219.98 -821.98,1457.32 -1206,2313.6 -178.73,398.55 -318.39,712.23 -377.16,805.31z"/>
   <path class="fil9" style="mask:url(#id30)" d="M4170.72 41.23c2.35,-0.43 4.62,1.13 5.05,3.49 0.43,2.35 -1.13,4.62 -3.49,5.04 -248.85,45.84 -328.41,710.93 -389.33,1220.18 -64.15,536.52 -196.87,1027.55 -356.33,1544.54 -99.4,322.27 -182.52,591.42 -254.05,722.87 -1.14,2.1 -3.78,2.87 -5.88,1.74 -2.11,-1.14 -2.88,-3.78 -1.74,-5.89 0.63,-1.16 1.27,-2.33 1.9,-3.51 71.04,-132.09 153.09,-398.82 251.46,-717.76 159.31,-516.51 291.91,-1007 356,-1543.01 61.25,-512.01 141.24,-1180.7 396.41,-1227.7z"/>
   <path class="fil10" d="M2152.3 2371.67c8.33,-86.74 43.78,-318.15 191.2,-504.37 100.15,-126.51 188.94,-272.39 262.02,-392.48 61.16,-100.48 111.37,-182.97 148.43,-221.5 27.09,-28.18 63.15,-59.18 102.54,-93.06 78.21,-67.24 169.72,-145.93 229.63,-235.76 23.43,-35.15 41.67,-68.83 57.83,-98.69 47.17,-87.13 77.31,-142.78 166.77,-112.96 59.88,19.96 98.79,211.2 111.89,469.98 13.08,258.51 1,585.09 -41.12,875.09 -43.81,301.59 -107.02,600.02 -189.11,869.3 -75.39,247.3 -166.7,470.04 -273.55,648.11 -1.23,2.05 -3.9,2.73 -5.95,1.5 -1.2,-0.72 -1.93,-1.93 -2.08,-3.23 -32.72,-282.4 -138.23,-577.2 -283.32,-799.57 -111.49,-170.88 -246.27,-298.87 -389.13,-345.3l4.93 -7.47c144.06,47.72 279.56,176.5 391.48,348.04 143.62,220.12 248.65,510.83 283.15,790.61 103.68,-175.61 192.54,-393.63 266.18,-635.21 81.93,-268.78 145.05,-566.76 188.8,-868.01 42.05,-289.49 54.11,-615.45 41.05,-873.46 -12.92,-255.29 -49.83,-443.45 -105.94,-462.16 -82.56,-27.52 -111.35,25.64 -156.39,108.85 -16.27,30.05 -34.62,63.93 -58.24,99.37 -60.59,90.86 -152.59,169.97 -231.22,237.57 -39.22,33.72 -75.1,64.57 -101.94,92.48 -36.39,37.85 -86.38,119.98 -147.26,220.01 -73.18,120.24 -162.08,266.3 -262.65,393.33 -146.65,185.24 -181.41,415.68 -189.45,500.7 -2.8,-0.58 -5.65,-1.15 -8.55,-1.7zm758.02 -967.23c-2.27,-0.75 -3.5,-3.2 -2.75,-5.48 0.75,-2.27 3.21,-3.5 5.48,-2.75 14.62,4.85 27.04,17.48 36.2,32.39 10.03,16.31 16.26,35.57 17.18,50.28 8.32,2.93 17.59,7.57 27.92,14.22 51.25,32.97 16.76,146.71 3.3,191.11l-1.04 3.5c-0.36,1.43 -0.48,5.96 -0.19,10.45l0.13 1.83c30.21,-37.07 73.09,-54.54 110.34,-69.7 41.28,-16.8 75.27,-30.65 74.21,-66.05 -0.1,-1.72 0.83,-3.41 2.48,-4.19 78.42,-37.25 65.35,-136.98 52.4,-235.83 -9.72,-74.17 -19.38,-147.89 8.91,-196.78 25.98,-44.92 32.31,-71.34 27.69,-85.83 -2.11,-6.61 -6.81,-10.59 -13.01,-12.64 -6.82,-2.26 -15.47,-2.33 -24.67,-1.09 -29.13,3.94 -62.5,20.14 -64.54,24.08 -34.77,67.4 -43.09,69.68 -69.73,76.97 -15.43,4.22 -37.47,10.26 -76.46,34.3 -13.56,8.36 -31.88,32.09 -49.04,58.39 -26.01,39.85 -49.11,84.9 -49.36,92.01 -4.17,115.88 -62.65,139.09 -113.39,159.22 -31.67,12.57 -60.17,23.89 -68.29,57.41 -5,20.62 -10,34.39 -15.22,43.65 11.28,18.15 30.41,54.72 45.32,88.21 12.74,28.59 22.48,55.21 21.96,67 -0.43,9.52 2.58,22.75 6.06,38.09 7.69,33.9 17.65,77.81 0.02,120.17 -34.13,82 -22.9,113.06 -8.6,152.56 8.78,24.27 18.69,51.63 20.58,95 1.81,41.46 -2.6,64.15 -7.02,86.86 -3.35,17.24 -6.71,34.5 -7.24,60.09 -0.23,10.98 -1.89,23.48 -3.75,37.48 -2.55,19.25 -5.5,41.42 -5.5,66.02l0.01 16.35c0.2,87.91 0.22,99.84 -63.11,180.6 -5.25,11.07 -15.7,26.51 -26.87,43.01 -18.86,27.86 -39.88,58.9 -39.88,74.47 0,23.26 8.6,38.48 18.43,45.08 2.99,2 6.06,3.17 8.94,3.46 2.72,0.28 5.3,-0.21 7.48,-1.46 4.97,-2.87 8.45,-9.76 8.35,-21.01l-0.07 -7.59c-0.44,-0.68 -0.69,-1.48 -0.69,-2.35 0,-74.04 28.76,-88.79 59.27,-104.45 31.96,-16.4 66.02,-33.89 66.02,-134.49 0,-126.13 4.55,-130.58 39.53,-164.84 13.69,-13.4 32.26,-31.58 57.33,-64.49 24.23,-31.8 58.37,-49.48 90.05,-65.88 43.74,-22.65 82.63,-42.8 80.54,-95.09 -0.01,-0.46 0.04,-0.91 0.16,-1.33l1.24 -6.08c4.65,-21.91 20.28,-95.44 20.28,-136.14l0 -2.95c-92.81,-27.24 -114.91,8.79 -129.33,32.31 -6.61,10.78 -11.87,19.33 -21.3,20.26 -2.31,40.97 -8.48,81.04 -22.99,118.49 -0.87,2.23 -3.38,3.34 -5.61,2.48 -2.23,-0.87 -3.35,-3.38 -2.48,-5.61 26.46,-68.26 24.52,-146.42 22.65,-222.48 -0.49,-19.78 -0.98,-39.44 -0.98,-57.96 0,-53.22 12.65,-90.87 32,-118.57 -1.08,-2.49 -1.69,-6.43 -1.93,-10.4 -0.33,-5.23 -0.08,-10.94 0.48,-13.26l1.12 -3.74c12.94,-42.63 46.06,-151.86 0.33,-181.28 -10.16,-6.54 -19.09,-10.95 -26.93,-13.56l-0.54 0.04c-1.1,0 -2.1,-0.41 -2.86,-1.07 -17.47,-4.81 -29.16,-0.07 -36.81,10.44 -12.18,16.72 -15.41,47.51 -15.41,78.5 0,2.4 -1.95,4.35 -4.35,4.35 -2.4,0 -4.35,-1.95 -4.35,-4.35 0,-32.49 3.59,-65.04 17.11,-83.61 9.26,-12.7 22.69,-19.02 41.96,-14.84 -1.43,-12.93 -7.02,-29.13 -15.63,-43.16 -8.21,-13.36 -19.08,-24.6 -31.52,-28.72zm-78.05 1459.31c9.9,20.16 17.45,44.64 18.14,65 1.52,44.83 25.3,43.39 53.76,41.66 51.64,-3.15 116.94,-7.1 113.98,202.16 40.69,-100.96 76.49,-206.2 107.92,-313.01 -65.14,0.01 -94.94,-0.02 -132.76,-64.65 -6.35,-10.86 -14.61,-19.92 -24.17,-27.22 -20.15,-15.4 -46.13,-23.08 -72.57,-23.72 -26.53,-0.64 -53.45,5.8 -75.35,18.62 -10.86,6.36 -20.5,14.3 -28.22,23.72 -0.2,0.33 -0.45,0.65 -0.75,0.92l-1.17 1.5c-0.54,0.71 -1.26,1.21 -2.05,1.48l-2.01 1.85c-16.5,15.32 -35.45,32.91 -59.24,32.26 -10.81,-0.3 -14.98,-3.74 -14.81,-9.74 0.16,-5.92 6.47,-13.37 14.41,-22.74 12.44,-14.71 29.39,-34.74 29.27,-55.49 -0,-2.39 1.93,-4.35 4.32,-4.35 2.4,-0 4.35,1.93 4.35,4.32 0.15,23.94 -18,45.39 -31.31,61.12 -6.85,8.09 -12.28,14.52 -12.37,17.38 -0.01,0.41 1.8,0.7 6.38,0.83 20.25,0.56 37.82,-15.76 53.1,-29.96l4.8 -4.44c8.44,-10.41 19.01,-19.17 30.92,-26.14 23.31,-13.64 51.87,-20.49 79.94,-19.81 13.23,0.31 26.39,2.31 38.85,6.04l0.23 -0.38c50.12,-73.97 75.81,-71.56 125.91,-66.87 19.83,1.86 43.69,4.1 74.9,1.65 3.47,-0.27 8.09,1.37 13.37,3.24 4.56,1.63 9.72,3.45 14.2,4.06 4.74,0.65 8.98,-0.3 10.96,-5.33l1.17 -4.74c12.89,-52.32 24.82,-104.65 35.84,-156.68 9.96,-47.05 19.2,-93.85 27.73,-140.17 -0.91,0.14 -1.89,0.22 -2.94,0.22 -27.12,0 -57.05,-7.13 -87.41,-14.37 -47.48,-11.31 -96.1,-22.91 -134.62,-7.04 -42.18,17.38 -68.07,35.3 -83.29,59.21 -15.21,23.89 -20.02,54.24 -20.02,96.43 0,117.86 -61.41,146.05 -105.19,166.13 -20.94,9.59 -37.5,17.2 -39.31,31.86l-0.19 2.53 0.09 2.74c0.17,2.39 -1.63,4.48 -4.02,4.65 -2.39,0.18 -4.48,-1.62 -4.66,-4.02 -0.08,-1.12 -0.11,-2.31 -0.09,-3.52 0.02,-1.26 0.11,-2.42 0.23,-3.44 2.41,-19.45 20.93,-27.96 44.33,-38.69 41.65,-19.1 100.09,-45.91 100.09,-158.24 0,-43.79 5.15,-75.54 21.41,-101.09 16.26,-25.54 43.39,-44.48 87.31,-62.57 41.14,-16.95 91.12,-5.04 139.92,6.59 29.86,7.11 59.3,14.14 85.41,14.14 2.6,0 4.07,-0.98 4.94,-2.47 27.56,-151.28 47.74,-297.25 62.04,-429.95 -13.87,16.97 -37.44,24.09 -63.56,25.57 -39.43,2.25 -84.98,-8.33 -110.34,-16.73l-3.66 -1.2 0 0.28c0,41.53 -15.79,115.82 -20.48,137.95 -0.74,3.46 -1.19,4.98 -1.22,5.31 2.3,57.77 -38.9,79.11 -85.24,103.11 -30.84,15.97 -64.08,33.18 -87.13,63.43 -25.45,33.4 -44.27,51.82 -58.15,65.41 -32.66,31.98 -36.91,36.15 -36.91,158.65 0,105.87 -36.52,124.63 -70.79,142.21 -27.07,13.89 -52.63,27.03 -54.4,89.67 0.31,0.59 0.48,1.26 0.49,1.97l0.14 14.97c0.14,14.8 -5.16,24.28 -12.7,28.6 -3.83,2.18 -8.19,3.03 -12.67,2.57 -4.29,-0.44 -8.72,-2.09 -12.89,-4.89 -11.9,-7.98 -22.31,-25.76 -22.31,-52.28 0,-18.18 21.83,-50.41 41.41,-79.34 9.06,-13.38 17.63,-26.04 23.14,-35.95l2.52 -5.35c0.15,-0.34 0.34,-0.68 0.58,-0.98 62.46,-79.53 62.44,-90.78 62.24,-176.46l-0.02 -16.35c-0.02,-24.98 2.98,-47.54 5.58,-67.14 1.83,-13.76 3.47,-26.06 3.69,-36.52 0.54,-26.44 3.96,-44.01 7.38,-61.56 4.32,-22.24 8.65,-44.46 6.88,-84.85 -1.84,-42.04 -11.5,-68.74 -20.07,-92.42 -14.94,-41.3 -26.69,-73.76 8.74,-158.86 16.58,-39.83 6.96,-82.21 -0.46,-114.93 -3.62,-15.95 -6.74,-29.71 -6.26,-40.37 0.46,-10.3 -8.94,-35.56 -21.21,-63.09 -13.94,-31.31 -31.54,-65.23 -42.74,-83.85 -8.73,10.52 -18.2,11.16 -29.28,11.92 -20.79,1.41 -48.15,3.27 -91.99,100.76 -3.45,7.67 -3.28,13.8 -3.06,21.85 0.5,18.15 1.25,45.25 -32.76,116.87 -28.8,60.64 -71.55,88.08 -101.29,107.17 -23.1,14.82 -37.53,24.09 -28.8,39.98 6.85,12.46 10.12,22.27 10.56,30.07 13.22,17.37 36.42,39.89 61.91,64.67 60.55,58.81 133.98,130.15 123.61,181.22 -3.74,18.49 -7.69,34.15 -11.24,48.25 -15.51,61.65 -23.49,93.37 33.1,168.53 24.36,32.35 -3.79,79.14 -27.29,118.19 -8.67,14.4 -16.69,27.73 -20.89,38.39 -0.34,0.87 -0.93,1.57 -1.65,2.04 -0.67,1.19 -1.89,2.03 -3.35,2.17 -2.39,0.22 -4.51,-1.52 -4.72,-3.9 -0.31,-3.28 -19.83,-51.54 -38.41,-95.15 -13.8,-32.4 -27.02,-62.02 -31.37,-68.36 -25.78,-37.6 -76.33,-38 -117.85,-38.33 -36.81,-0.28 -67.09,-0.53 -71.61,-25.64 -1.94,-10.77 -28.15,-19.02 -55.33,-27.57 -26.29,-8.27 -53.44,-16.82 -64.09,-30.22 -2.01,-0.39 -3.52,-2.15 -3.52,-4.27 0,-74.54 21.56,-84.46 45.43,-95.44 25.43,-11.7 53.78,-24.76 56.51,-141.24 1.28,-54.7 43.97,-62.28 79.64,-68.61 13.14,-2.33 25.27,-4.49 33.14,-8.81 5.23,-2.87 8.57,-7.03 8.99,-13.49l-0.07 -0.09c-1.06,-1.48 -1.06,-3.4 -0.14,-4.85 -0.81,-6.03 -3.63,-13.64 -8.96,-23.35 -12.63,-23 4.42,-33.96 31.72,-51.48 28.89,-18.54 70.4,-45.19 98.12,-103.57 33.13,-69.77 32.42,-95.62 31.94,-112.92 -0.26,-9.19 -0.45,-16.2 3.81,-25.66 45.98,-102.24 76.3,-104.3 99.33,-105.87 9.31,-0.63 17.24,-1.17 24.76,-11.32l-1.19 -1.71c-1.38,-1.95 -0.93,-4.67 1.02,-6.06 1.5,-1.06 3.46,-1.04 4.91,-0.09 4.17,-8.27 8.28,-20.23 12.5,-37.65 9.18,-37.89 39.65,-49.98 73.52,-63.43 48.3,-19.17 103.94,-41.26 107.91,-151.48 0.29,-8.09 24.06,-55.5 50.77,-96.43 17.76,-27.22 36.98,-51.93 51.75,-61.04 40.05,-24.7 62.81,-30.93 78.75,-35.29 23.82,-6.52 31.26,-8.56 64.29,-72.57 2.54,-4.91 39.65,-24.45 71.11,-28.71 10.42,-1.41 20.38,-1.26 28.54,1.44 8.78,2.9 15.46,8.64 18.55,18.28 5.31,16.65 -1.06,45.46 -28.44,92.8 -24.58,42.49 -18.66,106.78 -10.16,173.21 6.13,-7.62 12.66,-12.57 19.33,-15.08 9.41,-3.54 18.93,-2.28 27.99,3.1 8.52,5.07 16.65,13.88 23.81,25.8 17.08,28.39 29.23,75.2 29.23,131.62 0,184.63 -22.09,527.41 -89.96,904.45 0.29,0.7 0.41,1.48 0.28,2.28 -0.56,3.79 -1.19,7.51 -2.65,10.74 -9.04,49.59 -18.87,99.74 -29.56,150.19 -11.08,52.3 -23.07,104.91 -36.04,157.52 -0.34,2.22 -0.83,4.17 -1.45,5.88 -60.36,243.57 -141.57,486.81 -249.55,698.72 -0.72,1.43 -2.13,2.28 -3.62,2.37l-0.26 0.08c-2.31,0.65 -4.72,-0.7 -5.36,-3.01 -2.86,-10.11 -3.41,-22.73 -3.99,-36.44 -1.02,-24.17 -2.2,-51.96 -17,-73.07 -27.26,-38.91 -28.68,-75.13 -30.08,-111.33 -1.64,-42.17 -3.28,-84.33 -48.33,-130.1 -23.74,-24.13 -30.36,-43.65 -36.76,-62.56 -3.57,-10.55 -7.08,-20.91 -13.59,-31.59 -10.21,-16.77 -16.83,-41.67 -16.81,-63.31 0.01,-10.9 1.7,-21.1 5.44,-29.18 4,-8.64 10.29,-14.94 19.3,-17.37 26.79,-7.24 39.34,18 49.68,39.06zm-47.44 -30.67c-6.26,1.69 -10.73,6.28 -13.66,12.62 -3.19,6.91 -4.64,15.85 -4.65,25.54 -0.02,20.16 6.11,43.28 15.55,58.79 7.04,11.55 10.69,22.35 14.41,33.33 6.09,17.99 12.38,36.57 34.72,59.26 47.39,48.16 49.11,92.02 50.81,135.89 1.35,34.91 2.72,69.87 28.52,106.67 16.26,23.2 17.5,52.34 18.57,77.7 0.36,8.56 0.71,16.67 1.63,23.83 27.83,-55.26 53.85,-112.62 78.19,-171.52l0 -0.07c7.81,-222.87 -54.96,-219.05 -104.22,-216.05 -33.31,2.02 -61.13,3.71 -62.95,-50.06 -0.65,-19.1 -7.83,-42.28 -17.26,-61.46 -7.39,-15.05 -19.07,-40.03 -39.65,-34.48zm276.17 -150.35c-46.37,-4.35 -70.33,-6.58 -116.85,61.48 10.89,4.09 21.12,9.59 30.26,16.58 10.41,7.96 19.43,17.85 26.38,29.74 35.32,60.36 63.57,60.36 125.34,60.36l2.5 -0c15.42,-52.83 29.76,-106.03 43.11,-159.26 -2.67,0.5 -5.6,0.45 -8.65,0.03 -5.4,-0.74 -10.99,-2.72 -15.94,-4.47 -4.33,-1.54 -8.13,-2.88 -9.79,-2.75 -31.78,2.49 -56.12,0.2 -76.36,-1.69zm-558.23 -601.44c-22.79,-22.15 -43.75,-42.51 -57.74,-59.34 -2.27,5.11 -6.42,8.94 -11.94,11.98 -9.14,5.02 -21.95,7.3 -35.82,9.76 -32.48,5.76 -71.35,12.67 -72.46,60.21 -2.85,121.95 -33.79,136.18 -61.54,148.96 -20.87,9.6 -39.76,18.3 -40.35,84.34l0.69 0.82c7.8,11.91 34.75,20.39 60.79,28.59 29.74,9.36 58.41,18.38 61.28,34.35 3.24,18.02 30.28,18.24 63.12,18.49 43.59,0.34 96.62,0.76 124.97,42.11 4.7,6.86 18.21,37.03 32.19,69.84 14.18,33.31 28.94,69.65 35.52,87.25 4.67,-9.62 11.16,-20.41 18.06,-31.87 22.13,-36.77 48.64,-80.82 27.81,-108.49 -59.09,-78.47 -50.77,-111.56 -34.59,-175.85 3.58,-14.24 7.57,-30.07 11.17,-47.83 9.43,-46.44 -62.16,-115.98 -121.17,-173.31zm741.43 -764.1l-0.33 0.45 0.71 5.44c13.22,100.94 26.54,202.76 -54.79,243.57 -0.38,39.41 -36.26,54.04 -79.64,71.69 -63.42,25.81 -143.78,58.53 -143.78,189.32 0,19.5 0.48,38.57 0.95,57.76 0.81,32.69 1.63,65.76 0.22,98.34 4.71,-1.58 8.61,-7.94 13.43,-15.8 16.44,-26.83 42.02,-68.56 151.82,-32.16 24.7,8.17 69,18.47 107.15,16.3 24.96,-1.42 47.17,-8.17 58.91,-24.45 1.62,-2.24 3.04,-3.16 4.25,-3.59 0.21,-1.48 1.16,-2.67 2.41,-3.26 20.57,-195.28 28.38,-360.76 28.38,-470.38 0,-54.81 -11.63,-100 -27.97,-127.17 -6.41,-10.66 -13.5,-18.44 -20.79,-22.77 -6.76,-4.02 -13.75,-5 -20.51,-2.46 -6.92,2.59 -13.85,8.83 -20.43,19.17z"/>
   <path class="fil3" style="mask:url(#id32)" d="M1624.57 3882.97c168.79,-109.12 366.56,-194.19 570.34,-231.08 179.39,-32.47 363.45,-27.62 536.54,30.95l9.65 4.59c16.77,8.02 22.53,11.01 18.18,20.14l-0.23 0.43c-1.77,3.4 -5.42,7.26 -10.9,13.02 -15.84,16.69 -47.93,50.48 -89.21,130.38 -10.38,20.1 -219.38,86.74 -422.36,122.95 -130.92,23.35 -259.72,34.41 -331.68,12.83 -116.3,-34.89 -144.53,-55.13 -159.06,-65.55 -7.46,-5.35 -10.94,-7.84 -22.79,-8.29 -10.12,-0.39 -18.91,2.35 -27.18,4.93 -21.65,6.75 -40.3,12.55 -72.46,-28.95 -1.46,-1.89 -1.11,-4.63 0.78,-6.09l0.37 -0.25zm571.87 -222.54c-201.01,36.38 -396.19,119.96 -563.21,227.28 26.63,32.65 42.14,27.83 60.06,22.25 8.94,-2.79 18.44,-5.74 30.07,-5.3 14.52,0.56 18.65,3.52 27.54,9.9 14.15,10.14 41.61,29.83 156.49,64.3 70.48,21.14 197.89,10.08 327.69,-13.07 200.81,-35.81 406.52,-99.73 416.15,-118.36 41.84,-80.99 74.51,-115.39 90.64,-132.39 4.94,-5.2 8.24,-8.68 9.44,-10.93l0.11 -0.27c0.7,-1.47 -3.11,-3.34 -14.07,-8.58l-8.83 -4.22c-171.59,-58.04 -354.13,-62.81 -532.09,-30.6z"/>
   <path class="fil4" style="mask:url(#id34)" d="M2623.77 3963.26c-2.01,-57.66 25.15,-124.52 65.67,-183.2 43.46,-62.92 102.44,-116.64 157.33,-139.6 35.5,-14.85 50.36,-19.59 53.12,-12.99 2.08,4.98 -4.99,13.32 -16.47,26.84 -13.57,15.98 -33.96,40.02 -53.31,71.24 -29.15,47.04 -52.46,97.8 -73.15,142.88 -20.92,45.57 -39.21,85.4 -58.37,110.25l-13.11 17.16c-20.42,26.88 -35.4,46.6 -46.01,48.44 -7.28,1.26 -12.07,-3.43 -14.23,-15.85 -5.41,-31.13 -1.83,-62.13 -1.46,-65.17zm72.81 -178.27c-39.64,57.4 -66.19,122.55 -64.13,178.31l-0.02 0.6c-0,0.08 -4.11,31.56 1.36,63.06 1.12,6.43 2.51,9.04 4.2,8.75 7.27,-1.26 21.36,-19.81 40.57,-45.12l13.14 -17.22c18.58,-24.08 36.67,-63.48 57.35,-108.55 20.82,-45.35 44.27,-96.41 73.65,-143.84 19.73,-31.83 40.35,-56.13 54.06,-72.29 9.35,-11.02 15.11,-17.82 15.08,-17.9 -0.06,-0.14 -11.96,5.22 -41.76,17.68 -53.38,22.32 -110.94,74.87 -153.52,136.51z"/>
   <path class="fil5" style="mask:url(#id36)" d="M2886.1 3636.65c0.06,-0.06 21.45,-22.56 55.25,-19.19 4.8,0.48 9.74,0.78 14.37,1.05 11.72,0.69 21.57,1.28 27.58,5.11 8.31,5.29 9.04,14.61 -2.81,33.23 -11.93,18.75 -22.42,39.87 -35.26,65.73 -10.8,21.75 -23.26,46.85 -39.56,76.59 -5.89,10.75 -12.06,22.22 -18.53,34.28 -34.85,64.95 -78.83,146.92 -105.69,161.73 -14.94,8.25 -38.29,17.48 -58.25,21.23 -9.43,1.77 -18.23,2.33 -25.23,1.05 -8.02,-1.49 -13.86,-5.33 -16.12,-12.37 -0.82,-2.57 -1.11,-5.52 -0.79,-8.85 1.25,-12.94 23.76,-58.95 51.82,-111.85 46.5,-87.61 108.61,-195.04 113.98,-201.09 8.39,-9.46 38.87,-46.22 38.95,-46.33l0.28 -0.33zm54.4 -10.55c-28.3,-2.83 -46.58,15.04 -48.13,16.59 -2.48,3 -30.89,37.25 -39.01,46.39 -5.17,5.82 -66.54,112.21 -112.79,199.35 -27.63,52.08 -49.75,97 -50.88,108.62 -0.2,2.13 -0.04,3.92 0.42,5.38 1.14,3.55 4.57,5.59 9.42,6.48 5.87,1.08 13.6,0.54 22.07,-1.05 19.04,-3.57 41.35,-12.42 55.67,-20.31 24.61,-13.57 67.92,-94.28 102.23,-158.23 6.66,-12.42 13,-24.22 18.55,-34.35 16.35,-29.81 28.7,-54.69 39.4,-76.24 12.93,-26.04 23.5,-47.32 35.73,-66.55 8.37,-13.15 9.11,-18.93 5.46,-21.25 -4.09,-2.6 -12.91,-3.13 -23.44,-3.75 -4.56,-0.26 -9.43,-0.56 -14.7,-1.08z"/>
   <path class="fil6" style="mask:url(#id38)" d="M2986.25 3622.84c17.61,3.15 74.01,14.66 89.13,35.46 2.13,2.92 4.09,5.4 6.04,7.86 2.39,3.02 4.77,6.02 6.78,8.85 13.52,19 19.14,38.96 -25.44,70.69 -32.3,22.98 -53.27,60.69 -73.22,96.55 -13.42,24.15 -26.41,47.49 -42.19,65.4 -20.16,22.89 -34.04,33.31 -46.38,36.57 -12.89,3.41 -23.34,-0.81 -36.83,-6.99 -24.31,-11.14 -17.91,-26.89 -7.85,-51.69 2.15,-5.3 4.5,-11.07 6.61,-17.06 4.42,-12.45 20.41,-45.38 38.52,-81.41 18.21,-36.26 38.27,-75.09 51.04,-99.8 4.2,-8.13 9.51,-16.68 14.53,-24.78 8.26,-13.31 15.76,-25.41 15.72,-30.94 0,-0.22 -0.09,-0.42 -0.3,-0.57l-2.81 -0.46c-2.06,-0.33 -3.65,-2.09 -3.66,-4.25 -0.02,-2.39 1.91,-4.36 4.3,-4.37 2.43,-0.02 4.42,0.3 6,0.94zm82.1 40.56c-11.85,-16.31 -55.72,-26.63 -77.01,-30.79 -0.63,8.11 -8.42,20.67 -16.96,34.44 -4.92,7.93 -10.13,16.31 -14.2,24.2 -12.91,24.98 -33.17,64.2 -51.01,99.7 -17.94,35.72 -33.78,68.3 -38.07,80.43 -2.3,6.46 -4.62,12.19 -6.75,17.44 -8.15,20.1 -13.33,32.87 3.39,40.54 11.84,5.42 20.94,9.14 31.02,6.47 10.61,-2.8 23.15,-12.45 42.06,-33.91 15.25,-17.31 27.98,-40.2 41.15,-63.87 20.41,-36.71 41.87,-75.3 75.76,-99.41 38.31,-27.26 34.17,-43.43 23.4,-58.58 -2.11,-2.97 -4.31,-5.74 -6.5,-8.52 -2.21,-2.8 -4.47,-5.64 -6.28,-8.13z"/>
   <path class="fil7" style="mask:url(#id40)" d="M3065.83 3657.54c1.69,-4.39 49.25,-126.73 96.93,-125.63 26.3,0.61 57.91,5.08 80.41,16 18.09,8.77 30.52,21.7 30.52,40.08 0,20.71 -10.77,53.57 -28.2,86.52 -15.55,29.39 -36.47,59.06 -59.82,80.37 -25.15,22.97 -43.02,31.19 -56.66,31.62 -14.38,0.44 -23.72,-7.37 -31.81,-16.04 -6,-6.43 -10.7,-16.95 -12.94,-28.07 -2.14,-10.52 -2.12,-21.76 0.99,-30.75 6.82,-19.72 1.18,-26.28 -10.36,-39.65 -2.5,-2.89 -5.26,-6.07 -8.44,-10.04 -1.03,-1.28 -1.21,-2.98 -0.61,-4.41zm96.76 -116.96c-38.89,-0.89 -81.11,101.06 -87.8,117.87l6.67 7.86c13.71,15.91 20.43,23.72 11.98,48.14 -2.58,7.47 -2.54,17.08 -0.69,26.23 1.95,9.62 5.87,18.58 10.81,23.87 6.68,7.16 14.26,13.61 25.22,13.27 11.69,-0.36 27.64,-7.99 51.05,-29.37 22.57,-20.6 42.85,-49.39 57.98,-77.99 16.81,-31.76 27.19,-63.09 27.19,-82.47 0,-14.44 -10.42,-24.92 -25.59,-32.27 -21.27,-10.31 -51.52,-14.56 -76.8,-15.14z"/>
   <path class="fil8" style="mask:url(#id42)" d="M3195.67 3539.24c-1.28,2.02 -3.96,2.63 -5.99,1.36 -2.02,-1.28 -2.64,-3.96 -1.35,-5.99 58.46,-92.59 198,-406 376.58,-804.22 384.35,-857.04 939.74,-2095.48 1208.42,-2316.76 49.64,-40.89 90.17,-47.98 118.95,-13.03 1.52,1.85 1.25,4.58 -0.6,6.1 -1.85,1.52 -4.58,1.26 -6.1,-0.59 -24.97,-30.32 -61.4,-23.13 -106.75,14.22 -267.09,219.98 -821.98,1457.32 -1206,2313.6 -178.73,398.55 -318.39,712.23 -377.16,805.31z"/>
   <path class="fil9" style="mask:url(#id44)" d="M4170.72 41.23c2.35,-0.43 4.62,1.13 5.05,3.49 0.43,2.35 -1.13,4.62 -3.49,5.04 -248.85,45.84 -328.41,710.93 -389.33,1220.18 -64.15,536.52 -196.87,1027.55 -356.33,1544.54 -99.4,322.27 -182.52,591.42 -254.05,722.87 -1.14,2.1 -3.78,2.87 -5.88,1.74 -2.11,-1.14 -2.88,-3.78 -1.74,-5.89 0.63,-1.16 1.27,-2.33 1.9,-3.51 71.04,-132.09 153.09,-398.82 251.46,-717.76 159.31,-516.51 291.91,-1007 356,-1543.01 61.25,-512.01 141.24,-1180.7 396.41,-1227.7z"/>
   <path class="fil11" d="M1717.55 3730.66c-264.06,-13.85 -436.86,271.22 -560.57,475.32l-10.1 16.65c-213.8,352.11 -313.63,826.75 -845.59,727.41 -140.26,-26.15 -267.7,-183.72 159.11,-92.15 291.35,62.01 591.06,-367.61 592.68,-671.65 0.96,-182.86 79.89,-327.72 168.04,-419.95 49.97,-52.29 94.89,-99.29 112.53,-151.26 29.17,-85.97 26.46,-178.31 23.74,-271.06 -3.31,-112.94 -6.63,-226.51 47.04,-331.11 64.43,-125.57 114.37,-190.46 171.38,-264.55 32.2,-41.86 66.7,-86.68 107.3,-147.02 70.87,-105.31 168.06,-166.04 270.09,-192.29 98.59,-25.37 200.99,-17.42 289.03,12.87l0.19 -0.28c165,53.12 315.87,221.06 432.97,422.99 140.59,242.42 232.71,534.04 242.03,734.09 0.7,14.98 0.93,29.5 0.69,43.46 -0.04,2 -1.45,3.77 -3.49,4.18 -38.95,7.89 -72.12,22.6 -97.66,37.16 -20.19,14.09 -43.19,30.78 -55.65,41.94 -1.28,1.15 -3.06,1.39 -4.55,0.77l-0.72 -0.3c-0.42,-0.05 -0.83,-0.17 -1.24,-0.35l-3.62 -1.64c-64.18,-26.09 -159.87,-54.33 -286.09,-61.37 -124.07,-6.91 -277.63,6.66 -459.68,62.89 -9.37,3.2 -37.86,11.57 -58.6,19.71 -67.73,26.57 -157.96,9.27 -229.28,5.53zm-487.85 292.58c0.59,0.38 1.04,0.89 1.34,1.47 44.35,-65.66 100.58,-141.47 158.5,-204.55 62.12,-67.65 126.36,-120.79 180.39,-131.51 75.79,-15.04 142.39,-7.61 207.68,-0.33l5.63 0.63c49.87,5.54 73.46,2.35 91.82,-0.13 18.19,-2.46 31.46,-4.25 58.75,3.15 13.48,3.63 29.29,9.24 43.64,13.22 8.56,-2.79 17.04,-5.48 25.48,-8.09 113.07,-38.6 237.3,-60.9 357.88,-65.33 144.82,-5.33 284.49,15.12 393.4,64l1.59 0.66c6.32,-5.76 25.96,-22.7 55.96,-39.92 16.37,-11.44 30.87,-21.16 36.53,-24.93 -3.87,-15.69 -21.93,-92.6 -35.33,-210.91 -7.48,-66 -21.14,-126.35 -39.43,-186.72 -18.33,-60.5 -41.28,-120.98 -67.32,-187.19 -23.3,-59.24 -63.32,-128.13 -109.03,-195.62 -56.19,-82.97 -121.02,-163.87 -174.05,-222.26 -76.91,-84.68 -99.37,-87.71 -139.39,-93.11 -9.79,-1.32 -20.61,-2.78 -33.43,-5.52 -31.87,-6.8 -55.8,-18.37 -77.11,-28.68 -23,-11.12 -42.88,-20.74 -66.15,-20.74 -25.06,0 -30.38,19.33 -34.24,33.39 -3.25,11.82 -5.76,20.88 -16.17,18.69 -7.22,-1.52 -22.56,1.11 -38.67,5.46 -18.24,4.92 -37.17,12.02 -46.61,17.86 -1.06,0.65 -1.99,1.43 -2.81,2.3 -4.3,4.56 -5.38,11.98 -4.39,19.99 1.05,8.59 4.48,17.7 8.97,24.96 2.11,3.42 4.46,6.41 6.89,8.69 14.71,13.84 159.04,106.26 159.45,106.52 1.76,1.13 2.49,3.41 1.63,5.39 -0.11,0.26 -0.24,0.49 -0.39,0.72 1.17,0.88 1.88,2.34 1.73,3.91 0,0.04 -1.22,15.58 32.44,92.15 24.9,56.63 51.44,65.45 72.39,72.4 7.43,2.46 14.23,4.72 20.32,8.67 23.5,15.2 262.18,394.77 265.49,400.03 0.44,0.65 154.85,228.92 165.53,252.65 5.3,11.79 14.52,27.6 23.31,37.17 2.99,3.25 5.85,5.7 8.32,6.85 1.48,0.69 2.69,0.81 3.47,0.16 0.67,-0.56 1.32,-1.54 1.93,-3 21.22,-50.96 -9.53,-119.78 -46.18,-201.83 -26.02,-58.25 -55,-123.1 -70.78,-193.54 -21.29,-95.06 -65.62,-184.17 -118.24,-261.71 -69.64,-102.6 -153.81,-184.94 -218.46,-234.2 -1.9,-1.45 -2.27,-4.18 -0.81,-6.09 1.45,-1.9 4.18,-2.26 6.08,-0.81 65.22,49.7 150.13,132.76 220.36,236.24 53.18,78.35 97.99,168.45 119.54,264.7 15.58,69.53 44.37,133.98 70.24,191.87 37.48,83.91 68.93,154.3 46.28,208.7 -1.18,2.83 -2.67,4.93 -4.41,6.36 -3.75,3.09 -8.08,3.17 -12.67,1.03 -3.59,-1.68 -7.35,-4.82 -11.06,-8.86 -9.44,-10.28 -19.25,-27.04 -24.84,-39.47 -10.37,-23.06 -164.36,-250.71 -164.8,-251.36l-0.07 -0.12c-0.39,-0.62 -78.07,-124.14 -149.15,-233.38 -0.91,13.6 1.84,44.27 27.83,103.24 28.89,65.55 43.31,87.07 67.66,123.39 8.4,12.53 17.98,26.84 29.74,45.3 31.67,49.7 105.98,148.03 151.69,208.51 19.92,26.35 34.42,45.53 37.77,50.66l0.16 0.24c14.46,22.59 -18.18,17.7 -18.26,17.7 -0.95,-0.15 -1.85,-0.6 -2.56,-1.36 -0.33,-0.36 -115.91,-127.57 -151.58,-178.44 -22.55,-32.17 -73.28,-78.41 -117.94,-119.11 -24.76,-22.56 -47.66,-43.45 -63.11,-59.51 -18.11,-18.85 -40.6,-45.44 -63.61,-74 -31.86,-39.55 -64.83,-83.02 -88.56,-114.87 -30.48,-40.94 -90.36,-68.76 -123.23,-84.03 -10.07,-4.68 -17.68,-8.22 -21.56,-10.82l-0.35 -0.21c-3.37,-2.35 -8.88,-5.96 -15.63,-10.37 -23.37,-15.3 -61.46,-40.24 -75,-54.66l-0.23 -0.23c-9.52,-10.26 -22.21,-23.13 -35.15,-33.94 -33.82,-28.2 -73.86,-27.63 -101.88,-54.52 -30.24,-29.02 -48.37,-85.57 -82.45,-117.22 2.24,-1.98 4.48,-3.84 6.74,-5.58 37.1,34.41 49.74,89.44 82.77,120.92 25.19,24 70.13,24.48 100.39,49.75 13.24,11.05 26.22,24.2 35.94,34.69l0.17 0.2c12.68,13.54 50.36,38.21 73.46,53.33 6.96,4.56 12.63,8.27 15.83,10.5l0.27 0.2c3.21,2.15 10.57,5.56 20.31,10.09 33.57,15.6 94.75,44.02 126.56,86.74 23.63,31.72 56.49,75.05 88.37,114.61 22.87,28.38 45.19,54.78 63.1,73.41 15.16,15.78 38.02,36.61 62.7,59.11 44.96,40.98 96.03,87.52 119.2,120.57 33.35,47.56 138.11,163.45 149.79,176.34 3.44,0.32 11.5,0.58 8.19,-4.58l-0.12 -0.2c-2.98,-4.56 -17.49,-23.75 -37.44,-50.14 -45.72,-60.49 -120.04,-158.83 -152.06,-209.09 -11.69,-18.34 -21.25,-32.61 -29.63,-45.13 -24.65,-36.79 -39.25,-58.58 -68.41,-124.72 -34.13,-77.44 -28.97,-109.74 -26.81,-117.38 -51.39,-78.79 -97.83,-147.63 -106.87,-153.48 -5.17,-3.34 -11.44,-5.43 -18.32,-7.7 -22.57,-7.49 -51.17,-16.99 -77.61,-77.13 -34.57,-78.62 -33.12,-96.46 -33.12,-96.5 0.07,-0.71 0.31,-1.37 0.67,-1.93 -2.11,-0.93 -7.91,-3.48 -16.31,-7.06l-6.31 -4.15c-35.54,-17.59 -111.25,-55.45 -150.61,-77.94l-0.22 -0.14c-26.02,-14.86 -55.41,-30.94 -81.9,-41.26 -25.83,-10.06 -48.76,-14.68 -62.53,-7.22 -9.63,5.22 -12.14,14.32 -15.52,26.64 -6.33,23.03 -15.48,56.26 -73.9,97.88 -76.31,54.36 -94.93,117.81 -110.15,169.71 -2.7,9.22 -5.31,18.09 -8.18,26.71 -12.51,37.54 -32.43,48.76 -51.58,59.54 -10,5.63 -19.78,11.13 -27.78,20.41 -7.78,9.01 -4.06,25.41 0.21,44.24 7.52,33.17 16.61,73.25 -27.2,102.46 -58.03,38.69 -56.85,57.65 -55.9,72.91 0.13,2.13 0.26,4.22 0.26,6.16 0,3.23 4.6,10.99 10.71,21.28 20.2,34.04 55.62,93.76 9.47,144.82 -94.7,104.77 60.42,190.64 -208.61,433.86 -11.78,10.65 -23.72,21.45 -36.19,33.04 -19.44,18.08 -36.45,39.07 -51.14,61.57 13.44,1.44 26.29,1.27 38.61,-0.32 13.35,-1.72 26.13,-5.09 38.41,-9.85 61.57,-23.87 111.07,-82.72 160.78,-141.83 43.95,-52.26 88.08,-104.71 141.28,-134.28 -85.87,16.47 -156.53,32.84 -156.64,32.86 -2.35,0.42 -4.61,-1.15 -5.03,-3.5 -0.42,-2.35 1.15,-4.61 3.51,-5.04 0.04,-0 3.21,-1.72 14.85,-4.26 32.11,-7.03 102.37,-21.99 177.99,-35.41 43.43,-5.33 118.56,-19.17 159.37,-23.02 99.95,-9.44 140.85,23.33 243.93,26.83 34.13,1.16 66.05,2.25 88,8.46 5.02,1.42 9.91,2.59 14.65,3.56 -42.21,-13.06 -83.09,-38.17 -122.93,-62.66 -158.69,-97.52 -361.02,-54.12 -538.53,-43.68 -2.4,0.17 -4.49,-1.62 -4.66,-4.02 -0.17,-2.39 1.63,-4.48 4.02,-4.66 0.07,-0 4.76,-0.39 12.85,-0.75 174.38,-7.62 375.46,-49.82 530.89,45.69 63.15,38.81 128.94,79.24 196.98,68.89 2.37,-0.35 4.59,1.28 4.95,3.65 0.21,1.41 -0.28,2.75 -1.21,3.7 -0.54,0.78 -1.35,1.38 -2.33,1.67 -0.12,0.04 -41.9,12.57 -97.01,-3.03 -21,-5.94 -52.38,-7.02 -85.93,-8.15 -90.61,-3.07 -143.39,-34.57 -220.39,-29.28 -52.2,3.59 -121.13,14.4 -185.56,26.2 -64.83,23.8 -116.05,84.68 -167.01,145.28 -50.37,59.89 -100.52,119.52 -163.96,144.11 -4.54,1.76 -9.14,3.34 -13.82,4.72 -0.14,0.54 -0.38,1.06 -0.75,1.52 -61.52,76.51 -6.85,110.36 -6.7,110.46zm-2.54 7.21c-0.61,-0.06 -1.2,-0.26 -1.75,-0.61 -0.17,-0.11 -58.97,-36.6 -0.17,-115.51 -4.77,1.05 -9.61,1.89 -14.54,2.52 -14.01,1.81 -28.65,1.87 -44.02,-0.08l-0.28 -0.05c-42.28,67.99 -63.91,147.98 -67.03,202.73 -1.21,21.29 0.36,38.58 4.6,49.61 3.59,9.34 9.18,13.69 16.61,11.19 11.1,-3.74 26.19,-19.87 45.17,-52.43 15.11,-25.92 36.22,-59.85 61.4,-97.37zm648.94 -333.82c-18.78,2.54 -42.93,5.8 -93.73,0.15l-5.63 -0.63c-64.68,-7.21 -130.65,-14.56 -205.31,0.24 -52.15,10.35 -115,62.55 -176.11,129.1 -92.6,100.85 -180.9,234.42 -222.76,306.27 -20.03,34.38 -36.67,51.64 -49.48,55.95 -12.29,4.14 -21.16,-2.06 -26.45,-15.85 -4.65,-12.08 -6.4,-30.5 -5.13,-52.85 4.36,-76.55 44.25,-201.54 125.37,-277 11.75,-10.93 24.1,-22.09 36.27,-33.1 268.26,-242.52 109.27,-324.02 208.06,-433.31 42.25,-46.74 8.7,-103.3 -10.43,-135.53 -6.74,-11.35 -11.82,-19.93 -11.82,-25.29 0,-1.92 -0.11,-3.78 -0.23,-5.69 -1.08,-17.28 -2.41,-38.74 59.39,-79.94 39.31,-26.2 30.87,-63.39 23.89,-94.16 -4.74,-20.89 -8.86,-39.09 1.52,-51.11 8.93,-10.34 19.29,-16.17 29.87,-22.13 17.87,-10.06 36.44,-20.52 47.98,-55.14 2.73,-8.22 5.36,-17.16 8.09,-26.46 15.57,-53.07 34.6,-117.97 113.14,-173.91 56.15,-40 64.85,-71.62 70.87,-93.52 3.9,-14.2 6.79,-24.7 19.38,-31.51 16.16,-8.75 41.29,-4.02 69.1,6.82 27.01,10.52 56.71,26.76 82.97,41.77l0.23 0.12c27.79,15.87 73.76,39.44 110.82,58.08 -42.22,-27.51 -93.17,-61.27 -101.93,-69.51 -2.97,-2.8 -5.81,-6.39 -8.32,-10.46 -5.12,-8.27 -9.03,-18.65 -10.22,-28.46 -1.28,-10.4 0.42,-20.33 6.7,-27 1.31,-1.4 2.84,-2.66 4.58,-3.74 10.14,-6.27 29.99,-13.77 48.93,-18.87 17.23,-4.65 34.03,-7.38 42.68,-5.56 2.46,0.52 4.02,-5.13 6.04,-12.48 4.61,-16.76 10.95,-39.81 42.61,-39.81 25.2,0 45.94,10.02 69.92,21.63 20.85,10.09 44.27,21.41 75.15,28 12.55,2.68 23.16,4.11 32.77,5.41 42.04,5.67 65.63,8.86 144.66,95.86 53.22,58.59 118.31,139.84 174.8,223.24 46.06,68.01 86.4,137.48 109.94,197.33 26.14,66.46 49.19,127.17 67.56,187.83 18.42,60.79 32.18,121.63 39.74,188.29 14.99,132.34 35.81,212.49 35.87,212.72 0.17,0.67 0.17,1.33 0.04,1.95 15.87,-6.3 33.26,-11.83 51.98,-15.84 0.14,-12.67 -0.1,-25.86 -0.74,-39.5 -9.27,-198.81 -100.94,-488.84 -240.87,-730.12 -102.96,-177.54 -231.96,-328.52 -373.24,-396.96 -0.3,-0.07 -0.61,-0.17 -0.91,-0.31 -6.81,-3.32 -13.78,-6.5 -20.85,-9.53 -11.73,-4.93 -23.54,-9.29 -35.42,-13.03l0.28 -0.43c-86.23,-29.3 -186.27,-36.84 -282.61,-12.05 -100.28,25.8 -195.81,85.5 -265.5,189.06 -40.78,60.61 -75.34,105.51 -107.61,147.44 -56.8,73.79 -106.53,138.43 -170.61,263.32 -52.75,102.81 -49.45,215.37 -46.17,327.32 2.74,93.47 5.46,186.53 -24.15,273.81 -18.18,53.59 -63.68,101.19 -114.29,154.15 -87.17,91.2 -164.92,234.85 -165.87,414.55 -1.63,307.85 -305.55,742.98 -602.19,679.33 -382.28,-82.02 -313.57,46.77 -148.03,77.63 528.98,98.78 617.65,-375.91 829.42,-724.69l10.1 -16.65c126.03,-207.92 302.53,-499.06 575.54,-478.61 94.34,7.04 149.04,22.05 239.34,-12.52 -36.07,-9.84 -50.01,-19.41 -89.02,-14.15zm-396.49 -337.42c116.83,-0.07 474.47,101.51 592.17,163.71 93.24,49.28 173.09,91.48 216.1,83.77 2.35,-0.41 4.61,1.15 5.04,3.51 0.41,2.35 -1.15,4.61 -3.51,5.03 -45.98,8.23 -127.04,-34.6 -221.68,-84.62 -117.04,-61.85 -478.64,-163.04 -593.39,-162.72l5.27 -8.68zm123.44 -442.24c6.32,3.08 60.91,5.31 109.56,30.27 54.39,27.89 103.87,79.08 120.49,88.11 17.24,9.35 39.34,15.89 58.74,18.54 16.78,2.29 31.2,1.78 37.93,-2.27 -2.47,-10.46 -9.1,-47.54 15.51,-65.53 24.17,-17.66 40.79,0.78 64.2,26.79 5.52,6.14 11.46,12.74 17.82,19.19 12.2,12.38 35.22,29.56 62.11,49.61l0.21 0.17c43.23,32.22 96.33,71.84 132.02,112.22 56.38,63.81 103.46,64.28 103.59,64.28 2.4,0.07 4.28,2.08 4.2,4.47 -0.07,2.4 -2.08,4.27 -4.47,4.2 -0.15,-0 -50.91,-0.55 -109.81,-67.2 -35.07,-39.69 -87.8,-79.02 -130.71,-111.01l-0.23 -0.16c-27.14,-20.23 -50.38,-37.57 -63.11,-50.49 -6.67,-6.78 -12.59,-13.35 -18.09,-19.46 -20.35,-22.6 -34.79,-38.62 -52.61,-25.6 -21.18,15.48 -13.81,50.1 -11.91,57.63 0.17,0.27 0.31,0.56 0.41,0.86 17.77,51.45 126.51,107.93 126.81,108.09 2.12,1.12 2.93,3.76 1.81,5.88 -1.13,2.12 -3.76,2.93 -5.89,1.8 -0.3,-0.16 -104.91,-54.44 -128.81,-107.65 -9.16,4.44 -24.76,5.14 -42.15,2.77 -20.32,-2.77 -43.55,-9.65 -61.73,-19.53 -15.2,-8.25 -65.37,-59.76 -117.74,-86.65 -49.91,-25.63 -102.28,-26.8 -110.17,-30.65 0.87,-2.96 1.52,-5.88 2.01,-8.69zm-90.65 202.84c166.17,254.82 368.36,142.28 581.54,326.98 63.76,55.24 130.26,92 200.17,112.25 69.91,20.25 143.34,24.02 220.98,13.33 2.37,-0.32 4.56,1.35 4.88,3.72 0.32,2.37 -1.35,4.56 -3.72,4.88 -78.8,10.86 -153.41,7 -224.55,-13.61 -71.12,-20.6 -138.7,-57.93 -203.42,-114.02 -209.06,-181.12 -399.62,-66.44 -579.26,-322.95 0.84,-3.44 2.02,-7.04 3.4,-10.59zm706.65 170.76c-2.33,-0.54 -3.8,-2.87 -3.26,-5.2 0.53,-2.33 2.87,-3.8 5.2,-3.26 0.18,0.04 60.22,13.69 127.37,88.3 33.04,36.71 66.43,73.26 98.54,102.56 31.82,29.02 62.38,50.92 90.06,58.74 57.96,16.36 96.18,55.94 96.29,56.05 1.65,1.73 1.59,4.48 -0.14,6.12 -1.73,1.65 -4.47,1.59 -6.12,-0.14 -0.1,-0.11 -36.62,-37.92 -92.38,-53.67 -29.17,-8.23 -60.84,-30.83 -93.57,-60.68 -32.44,-29.57 -65.97,-66.29 -99.16,-103.17 -65.31,-72.57 -122.67,-85.61 -122.83,-85.64zm-685.43 -188.55c-0.46,-0.16 -0.87,-0.39 -1.23,-0.67 1.09,-2.77 2.05,-5.39 2.82,-7.76 0.42,0.02 0.85,0.09 1.26,0.24 0.18,0.07 192.28,33.64 215.84,66.91 8.67,12.23 47.14,58.55 75.71,67.35 42.11,12.96 93.34,21.19 120.01,23.14 6.9,0.51 13.95,0.65 21.46,0.8 44.03,0.85 103.54,2.04 199.55,71.61 31.79,23.03 55.95,41.55 77.22,57.84 52.83,40.48 87.76,67.24 182.54,119.16 62.17,34.05 100.31,62.1 127.81,82.31 30.83,22.67 47.92,35.24 70.11,34.9 2.39,-0.03 4.36,1.89 4.39,4.29 0.02,2.39 -1.9,4.36 -4.29,4.39 -25.09,0.38 -43.01,-12.79 -75.34,-36.57 -27.33,-20.1 -65.26,-47.98 -126.82,-81.71 -95.43,-52.27 -130.55,-79.18 -183.67,-119.87 -21.09,-16.15 -45.03,-34.5 -77.06,-57.7 -93.85,-67.99 -151.77,-69.14 -194.59,-69.97 -7.84,-0.15 -15.19,-0.3 -21.93,-0.79 -27.09,-2 -79.15,-10.35 -121.94,-23.52 -30.19,-9.3 -70.3,-56.61 -80.24,-70.65 -21.91,-30.94 -211.44,-63.66 -211.62,-63.71z"/>
  </g>
 </g>
</svg>
