<?xml version="1.0" encoding="UTF-8"?>
<!DOCTYPE svg PUBLIC "-//W3C//DTD SVG 1.1//EN" "http://www.w3.org/Graphics/SVG/1.1/DTD/svg11.dtd">
<!-- Creator: CorelDRAW 2021 (64-Bit) -->
<svg xmlns="http://www.w3.org/2000/svg" xml:space="preserve" width="2in" height="0.5in" version="1.1" style="shape-rendering:geometricPrecision; text-rendering:geometricPrecision; image-rendering:optimizeQuality; fill-rule:evenodd; clip-rule:evenodd"
viewBox="0 0 2000 500"
 xmlns:xlink="http://www.w3.org/1999/xlink"
 xmlns:xodm="http://www.corel.com/coreldraw/odm/2003">
 <defs>
  <style type="text/css">
   <![CDATA[
    .fil1 {fill:#00CCFF}
    .fil0 {fill:#B3B3B3;fill-rule:nonzero}
   ]]>
  </style>
 </defs>
 <g id="Layer_x0020_1">
  <metadata id="CorelCorpID_0Corel-Layer"/>
  <g id="_2922823386944">
   <path class="fil0" d="M1428.07 141.32l97.09 0c10.38,0 20.18,2.02 29.41,6.07 9.24,4.05 17.28,9.49 24.12,16.34 6.84,6.85 12.29,14.89 16.34,24.11 4.05,9.24 6.07,19.04 6.07,29.41l0 66.29c0,10.37 -2.02,20.18 -6.07,29.41 -4.05,9.23 -9.5,17.27 -16.34,24.12 -6.84,6.85 -14.89,12.29 -24.12,16.33 -9.23,4.05 -19.03,6.07 -29.41,6.07l-88.05 0c-52.93,0 -76.85,-41.48 -76.97,-41.7 -0.74,-1.47 -1.44,-2.98 -2.1,-4.52 -3.94,-9.24 -5.91,-19.14 -5.91,-29.72l0 -66.29c0,-10.58 1.97,-20.49 5.91,-29.72 3.94,-9.23 9.34,-17.27 16.19,-24.12 6.84,-6.85 14.89,-12.24 24.11,-16.19 9.23,-3.94 19.14,-5.91 29.72,-5.91zm0 176.46l97.09 0c4.77,0 9.24,-0.93 13.39,-2.8 4.15,-1.87 7.78,-4.36 10.89,-7.47 3.11,-3.11 5.54,-6.74 7.31,-10.89 1.76,-4.15 2.65,-8.5 2.65,-13.07l0 -66.29c0,-4.77 -0.88,-9.23 -2.65,-13.38 -1.76,-4.15 -4.2,-7.78 -7.31,-10.89 -3.12,-3.11 -6.74,-5.55 -10.89,-7.31 -4.15,-1.76 -8.61,-2.65 -13.39,-2.65l-97.09 0c-4.77,0 -9.24,0.88 -13.39,2.65 -4.15,1.76 -7.78,4.2 -10.89,7.31 -3.11,3.11 -5.55,6.74 -7.31,10.89 -1.76,4.15 -2.64,8.61 -2.64,13.38l0 66.29c0,4.57 0.88,8.92 2.64,13.07 1.77,4.15 4.2,7.78 7.31,10.89 3.11,3.11 6.74,5.6 10.89,7.47 4.15,1.87 8.61,2.8 13.39,2.8z"/>
   <path class="fil0" d="M1105.72 294.75l0 -132.89c0,-5.81 2.03,-10.74 6.07,-14.78 4.04,-4.04 8.97,-6.07 14.78,-6.07 5.8,0 10.74,2.02 14.78,6.07 4.04,4.05 6.06,8.97 6.06,14.78l0 132.89c0,6.43 2.24,11.88 6.69,16.34 4.46,4.46 9.91,6.69 16.34,6.69l178.48 0c22.94,38.11 50.54,41.7 50.54,41.7l-229.02 0c-8.91,0 -17.33,-1.71 -25.2,-5.14 -7.89,-3.42 -14.73,-8.04 -20.54,-13.85 -5.81,-5.81 -10.43,-12.66 -13.85,-20.54 -3.43,-7.89 -5.14,-16.29 -5.14,-25.21z"/>
   <path class="fil0" d="M286.35 206.98c0,-9.13 1.72,-17.69 5.14,-25.67 3.43,-7.98 8.09,-14.94 14,-20.85 5.92,-5.91 12.87,-10.58 20.85,-14.01 7.99,-3.42 16.54,-5.13 25.68,-5.13l111.41 0c5.81,0 10.73,1.97 14.78,5.91 4.05,3.94 6.07,8.82 6.07,14.63 0,29.86 0,59.86 0,89.63 0,5.6 -2.02,10.43 -6.07,14.47 -4.05,4.05 -8.97,6.07 -14.78,6.07l-135.38 0 0 21.78c0,6.64 2.33,12.29 7,16.96 4.67,4.67 10.32,7 16.96,7l111.41 0c5.81,0 10.73,2.02 14.78,6.07 4.05,4.05 6.07,8.97 6.07,14.78 0,5.81 -2.02,10.74 -6.07,14.78 -4.05,4.05 -8.97,6.07 -14.78,6.07l-111.41 0c-8.93,0 -17.38,-1.71 -25.37,-5.14 -7.99,-3.42 -14.99,-8.14 -21.01,-14.15 -6.02,-6.02 -10.73,-13.02 -14.16,-21.01 -3.42,-7.99 -5.14,-16.44 -5.14,-25.36l0 -86.83zm158.62 -23.96l-92.95 0c-6.64,0 -12.3,2.33 -16.96,7 -4.67,4.67 -7,10.32 -7,16.96l0 23.34 116.91 0 0 -47.3z"/>
   <path class="fil0" d="M806.3 140.39c-5.8,0 -10.73,1.97 -14.78,5.91 -4.04,3.95 -6.06,8.82 -6.06,14.63 0,29.86 0,59.87 0,89.63 0,5.6 2.02,10.43 6.06,14.47 4.05,4.05 8.98,6.07 14.78,6.07l135.38 0 0 21.79c0,6.64 -2.33,12.29 -7.01,16.96 -4.67,4.67 -10.32,7 -16.96,7l-111.41 0c-5.8,0 -10.73,2.02 -14.78,6.07 -4.04,4.05 -6.06,8.97 -6.06,14.78 0,5.81 2.02,10.74 6.06,14.78 4.05,4.05 8.98,6.07 14.78,6.07l111.41 0c8.92,0 17.38,-1.71 25.37,-5.13 7.99,-3.42 14.99,-8.14 21,-14.16 6.02,-6.02 10.74,-13.02 14.16,-21.01 3.43,-7.99 5.14,-16.44 5.14,-25.36l0 -34.95c0.13,-25.62 -2.03,-27.98 -15.8,-28.32 -4.74,-0.11 -11.14,-0.02 -18.74,-0.13l-45.59 0 0 -0.09 -78.5 0 0 -47.3 138.05 0.01c11.49,0 20.89,-9.4 20.89,-20.89l0 0c0,-11.49 -9.4,-20.89 -20.89,-20.89l-156.51 0.07z"/>
   <path class="fil0" d="M1773.98 141.53c-5.81,0 -10.74,1.97 -14.78,5.91 -4.05,3.94 -6.07,8.81 -6.07,14.63 0,29.86 0,59.87 0,89.63 0,5.6 2.02,10.43 6.07,14.47 4.05,4.05 8.97,6.07 14.78,6.07l135.37 0 0 21.78c0,6.64 -2.33,12.29 -7,16.96 -4.67,4.67 -10.33,7 -16.96,7l-111.41 0c-5.81,0 -10.74,2.02 -14.78,6.07 -4.05,4.04 -6.07,8.97 -6.07,14.78 0,5.81 2.02,10.74 6.07,14.78 4.05,4.05 8.97,6.07 14.78,6.07l111.41 0c8.93,0 17.38,-1.71 25.37,-5.13 7.98,-3.42 14.98,-8.14 21,-14.16 6.01,-6.02 10.74,-13.02 14.16,-21 3.42,-7.99 5.13,-16.44 5.13,-25.37l0 -34.94c0.13,-25.61 -2.03,-27.98 -15.8,-28.31 -4.73,-0.12 -11.14,-0.03 -18.74,-0.14l-45.59 0 0 -0.08 -78.49 0 0 -47.31 138.04 0.01c11.49,0 20.89,-9.4 20.89,-20.89l0 -0c0,-11.49 -9.4,-20.89 -20.89,-20.89l-156.5 0.07z"/>
   <path class="fil0" d="M555.38 140.39c-5.81,0 -10.74,1.97 -14.78,5.91 -4.05,3.95 -6.07,8.82 -6.07,14.63 0,29.86 0,59.87 0,89.63 0,5.6 2.02,10.43 6.07,14.47 4.04,4.05 8.97,6.07 14.78,6.07l135.38 0 0 21.79c0,6.64 -2.33,12.29 -7,16.96 -4.67,4.67 -10.32,7 -16.96,7l-111.41 0c-5.81,0 -10.74,2.02 -14.78,6.07 -4.05,4.05 -6.07,8.97 -6.07,14.78 0,5.81 2.02,10.74 6.07,14.78 4.04,4.05 8.97,6.07 14.78,6.07l111.41 0c8.93,0 17.37,-1.71 25.37,-5.13 7.99,-3.42 14.99,-8.14 21.01,-14.16 6.02,-6.02 10.73,-13.02 14.16,-21.01 3.42,-7.99 5.13,-16.44 5.13,-25.36l0 -34.95c0.13,-25.62 -2.03,-27.98 -15.8,-28.32 -4.74,-0.11 -11.14,-0.02 -18.73,-0.13l-45.58 0 0 -0.09 -78.5 0 0 -47.3 138.05 0.01c11.49,0 20.89,-9.4 20.89,-20.89l0 0c0,-11.49 -9.4,-20.89 -20.89,-20.89l-156.51 0.07z"/>
   <path class="fil0" d="M69.47 141.32l170.86 0c5.81,0 10.74,2.02 14.78,6.07 4.05,4.05 6.07,8.97 6.07,14.78 0,5.81 -2.02,10.74 -6.07,14.79 -4.04,4.04 -8.97,6.07 -14.78,6.07l-64.73 0 0 155.3c0,5.81 -2.02,10.73 -6.07,14.78 -4.05,4.04 -8.97,6.07 -14.78,6.07 -5.81,0 -10.73,-2.02 -14.78,-6.07 -4.04,-4.05 -6.07,-8.98 -6.07,-14.78l0 -155.3 -64.42 0c-5.81,0 -10.74,-2.02 -14.78,-6.07 -4.04,-4.05 -6.07,-8.97 -6.07,-14.79 0,-5.81 2.02,-10.73 6.07,-14.78 4.05,-4.05 8.98,-6.07 14.78,-6.07z"/>
   <path class="fil1" d="M1668.16 210.22l23.67 0c5.95,0 10.82,4.87 10.82,10.82l0 136.33 -45.32 0 0 -136.33c0,-5.95 4.87,-10.82 10.83,-10.82z"/>
   <path class="fil1" d="M1657.33 141.93l32.52 0c7.04,0 12.8,5.76 12.8,12.8l0 28.99c0,7.04 -5.76,12.8 -12.8,12.8l-19.71 0c-7.05,0 -12.81,-5.76 -12.81,-12.8l0 -41.79z"/>
  </g>
 </g>
</svg>
