<?xml version="1.0" encoding="UTF-8"?>
<!DOCTYPE svg PUBLIC "-//W3C//DTD SVG 1.1//EN" "http://www.w3.org/Graphics/SVG/1.1/DTD/svg11.dtd">
<!-- Creator: CorelDRAW 2021 (64-Bit) -->
<svg xmlns="http://www.w3.org/2000/svg" xml:space="preserve" width="2in" height="0.5in" version="1.1" style="shape-rendering:geometricPrecision; text-rendering:geometricPrecision; image-rendering:optimizeQuality; fill-rule:evenodd; clip-rule:evenodd"
viewBox="0 0 2000 500"
 xmlns:xlink="http://www.w3.org/1999/xlink"
 xmlns:xodm="http://www.corel.com/coreldraw/odm/2003">
 <defs>
  <style type="text/css">
   <![CDATA[
    .fil0 {fill:url(#id0)}
   ]]>
  </style>
  <linearGradient id="id0" gradientUnits="userSpaceOnUse" x1="42.42" y1="250.01" x2="1957.57" y2="250.01">
   <stop offset="0" style="stop-opacity:1; stop-color:#00CCFF"/>
   <stop offset="1" style="stop-opacity:1; stop-color:#66FFCC"/>
  </linearGradient>
 </defs>
 <g id="Layer_x0020_1">
  <metadata id="CorelCorpID_0Corel-Layer"/>
  <path class="fil0" d="M1806.36 197.73c0.91,-0.25 1.83,-0.48 2.74,-0.67l0 41.22c0,6.49 5.31,11.8 11.8,11.8l0 0c6.49,0 11.8,-5.31 11.8,-11.8l0 -41.14c18.86,4.3 34.8,18.58 40.26,38.54 7.91,28.87 -9.08,58.69 -37.95,66.6 -28.87,7.91 -58.69,-9.08 -66.6,-37.95 -7.91,-28.87 9.08,-58.69 37.95,-66.6zm-1738.74 -78.83l194.05 0c5.02,0 9.59,1.31 13.73,3.95 4.14,2.63 7.2,6.2 9.21,10.72 2,4.51 2.7,9.21 2.07,14.1 -0.63,4.89 -2.57,9.21 -5.83,12.98l-150.43 171.48 138.77 0c7.02,0 12.97,2.44 17.86,7.33 4.89,4.89 7.33,10.85 7.33,17.87 0,7.02 -2.44,12.97 -7.33,17.86 -4.89,4.89 -10.84,7.33 -17.86,7.33l-194.43 0c-5.02,0 -9.59,-1.31 -13.73,-3.95 -4.13,-2.63 -7.21,-6.2 -9.21,-10.72 -2,-4.51 -2.69,-9.21 -2.07,-14.1 0.63,-4.89 2.69,-9.21 6.2,-12.97l150.43 -171.49 -138.77 0c-7.02,0 -12.98,-2.44 -17.86,-7.33 -4.89,-4.89 -7.33,-10.84 -7.33,-17.86 0,-7.02 2.44,-12.98 7.33,-17.86 4.89,-4.89 10.84,-7.33 17.86,-7.33zm317.45 185.02l0 -106.43c0,-11.03 2.07,-21.31 6.2,-30.83 4.14,-9.53 9.72,-17.8 16.74,-24.82 7.02,-7.02 15.35,-12.6 25.01,-16.74 9.65,-4.14 19.87,-6.2 30.65,-6.2l86.87 0c11.03,0 21.31,2.07 30.84,6.2 9.52,4.14 17.86,9.78 25.01,16.92 7.14,7.15 12.78,15.48 16.92,25.01 4.14,9.53 6.2,19.81 6.2,30.84l0 6.02c0,11.03 -2.07,21.31 -6.2,30.84 -4.14,9.53 -9.78,17.86 -16.92,25.01 -7.15,7.15 -15.48,12.79 -25.01,16.93 -9.53,4.13 -19.81,6.2 -30.84,6.2l-115.07 0 0 21.06c0,7.77 2.76,14.42 8.27,19.93 5.52,5.52 12.16,8.28 19.93,8.28l139.89 0c7.02,0 12.98,2.44 17.86,7.33 4.89,4.89 7.33,10.85 7.33,17.87 0,7.02 -2.44,12.97 -7.33,17.86 -4.89,4.89 -10.84,7.33 -17.86,7.33l-139.89 0c-10.78,0 -21,-2.07 -30.65,-6.2 -9.65,-4.13 -17.99,-9.71 -25.01,-16.73 -7.02,-7.02 -12.6,-15.36 -16.74,-25.01 -4.14,-9.65 -6.2,-19.87 -6.2,-30.65zm50.39 -106.43l0 34.98 115.07 0c8.02,0 14.79,-2.76 20.31,-8.27 5.52,-5.52 8.27,-12.29 8.27,-20.31l0 -6.02c0,-8.02 -2.76,-14.79 -8.27,-20.31 -5.52,-5.52 -12.28,-8.28 -20.31,-8.28l-86.87 0c-7.77,0 -14.42,2.7 -19.93,8.09 -5.52,5.39 -8.27,12.1 -8.27,20.12zm315.39 134.63l137.64 0c7.77,0 14.35,-2.7 19.74,-8.09 5.39,-5.39 8.09,-12.09 8.09,-20.12 0,-7.77 -2.7,-14.35 -8.09,-19.74 -5.39,-5.39 -11.97,-8.09 -19.74,-8.09l-84.24 0c-10.78,0 -20.94,-2.07 -30.46,-6.2 -9.53,-4.14 -17.87,-9.78 -25.01,-16.92 -7.14,-7.15 -12.78,-15.48 -16.92,-25.01 -4.14,-9.53 -6.2,-19.68 -6.2,-30.46 0,-10.78 2.07,-20.93 6.2,-30.46 4.14,-9.53 9.78,-17.86 16.92,-25.01 7.15,-7.15 15.48,-12.78 25.01,-16.92 9.52,-4.14 19.68,-6.2 30.46,-6.2l137.26 0c7.02,0 12.98,2.44 17.87,7.33 4.89,4.89 7.33,10.84 7.33,17.86 0,7.02 -2.45,12.97 -7.33,17.86 -4.89,4.89 -10.85,7.33 -17.87,7.33l-137.26 0c-8.02,0 -14.73,2.76 -20.12,8.28 -5.39,5.52 -8.08,12.16 -8.08,19.93 0,7.78 2.69,14.42 8.08,19.93 5.39,5.52 12.1,8.27 20.12,8.27l84.24 0c10.78,0 20.94,2.07 30.46,6.21 9.53,4.13 17.8,9.71 24.82,16.73 7.02,7.02 12.6,15.3 16.73,24.82 4.14,9.52 6.21,19.68 6.21,30.46 0,10.78 -2.01,20.93 -6.02,30.46 -4.01,9.53 -9.59,17.86 -16.74,25.01 -7.14,7.15 -15.42,12.79 -24.82,16.92 -9.4,4.14 -19.62,6.2 -30.65,6.2l-137.64 0c-7.02,0 -12.98,-2.44 -17.86,-7.33 -4.89,-4.89 -7.33,-10.84 -7.33,-17.86 0,-7.02 2.44,-12.98 7.33,-17.87 4.89,-4.89 10.84,-7.33 17.86,-7.33zm301.66 25.2l0 -213.23c0,-7.02 2.44,-12.98 7.33,-17.86 4.89,-4.89 10.84,-7.33 17.86,-7.33l107.93 0c18.3,0 35.47,3.44 51.52,10.34 16.05,6.89 30.02,16.36 41.93,28.39 11.91,12.04 21.31,26.01 28.2,41.93 6.9,15.92 10.34,32.91 10.34,50.96 0,18.05 -3.44,35.1 -10.34,51.15 -6.89,16.04 -16.23,30.08 -28.02,42.12 -11.78,12.03 -25.7,21.5 -41.74,28.39 -16.05,6.89 -33.35,10.34 -51.9,10.34l-107.93 0c-7.02,0 -12.97,-2.44 -17.86,-7.33 -4.89,-4.89 -7.33,-10.84 -7.33,-17.86zm50.39 -188.04l0 162.84 82.74 0c11.28,0 21.94,-2.13 31.96,-6.39 10.03,-4.26 18.68,-10.03 25.95,-17.3 7.27,-7.27 13.04,-15.92 17.3,-25.95 4.26,-10.03 6.39,-20.69 6.39,-31.96 0,-11.28 -2.13,-21.87 -6.39,-31.78 -4.26,-9.9 -10.09,-18.55 -17.49,-25.95 -7.4,-7.39 -16.05,-13.16 -25.95,-17.3 -9.9,-4.14 -20.5,-6.21 -31.78,-6.21l-82.74 0zm396.24 -50.39l103.8 0c7.02,0 12.97,2.44 17.86,7.33 4.89,4.89 7.33,10.84 7.33,17.86 0,7.02 -2.44,12.97 -7.33,17.86 -4.89,4.89 -10.84,7.33 -17.86,7.33l-103.8 0c-8.02,0 -14.85,2.82 -20.5,8.46 -5.64,5.64 -8.46,12.47 -8.46,20.5l0 159.07c0,7.02 -2.44,12.97 -7.33,17.86 -4.89,4.89 -10.84,7.33 -17.86,7.33 -7.02,0 -12.97,-2.44 -17.86,-7.33 -4.89,-4.89 -7.33,-10.84 -7.33,-17.86l0 -159.07c0,-11.03 2.07,-21.31 6.2,-30.84 4.14,-9.53 9.84,-17.93 17.11,-25.2 7.27,-7.27 15.73,-12.97 25.38,-17.11 9.65,-4.14 19.87,-6.2 30.65,-6.2zm285.37 -0.9c31.86,-8.73 64.18,-5.44 92.13,7.11 4.66,2.09 11.68,4.98 15.15,8.53 2.3,2.34 4.05,5.29 4.98,8.68 2.91,10.62 -3.34,21.6 -13.96,24.51 -4.76,1.3 -9.59,0.77 -13.73,-1.17 -1.98,-0.93 -4.29,-2.46 -6.49,-3.52 -20.36,-9.72 -44.17,-12.46 -67.64,-6.03 -51.85,14.21 -82.37,67.76 -68.16,119.62 14.21,51.86 67.76,82.37 119.62,68.17 50.13,-13.74 80.32,-64.25 69.43,-114.44l0.02 -0.02c-0.31,-0.76 -0.58,-1.54 -0.8,-2.35 -2.91,-10.63 3.34,-21.6 13.96,-24.51 10.62,-2.91 21.6,3.34 24.51,13.96 0.57,2.09 0.96,4.7 1.39,6.87 13.9,69.8 -28.37,139.48 -98.08,158.58 -72.9,19.98 -148.19,-22.93 -168.16,-95.83 -19.98,-72.9 22.93,-148.19 95.82,-168.17zm121.27 46.05c9.85,-2.7 20.02,3.1 22.72,12.94 2.7,9.85 -3.1,20.02 -12.94,22.72 -9.85,2.7 -20.02,-3.1 -22.71,-12.94 -2.7,-9.85 3.09,-20.02 12.94,-22.72z"/>
 </g>
</svg>
